<svg id="Capa_1" data-name="Capa 1" xmlns="http://www.w3.org/2000/svg" viewBox="0 0 72.41 54.48"><defs><style>.cls-1{fill:#ef1616;}</style></defs><title>dislike</title><rect class="cls-1" width="72.41" height="44.67"/><path d="M71.62,389.42a3.89,3.89,0,0,0,2.9,6.49h7.56A25.17,25.17,0,0,0,81,402.49v1.3A5.2,5.2,0,0,0,86.2,409h1.3a1.3,1.3,0,0,0,1.26-1l0.71-2.83c1-4,4.14-8.33,7.39-9.13a3.9,3.9,0,0,0,3.62,2.47h7.79a1.3,1.3,0,0,0,1.3-1.3V373.85a1.3,1.3,0,0,0-1.3-1.3h-7.79A3.9,3.9,0,0,0,97,374.77l-4.46-1.49a14.25,14.25,0,0,0-4.51-.73H77.12a3.89,3.89,0,0,0-3.62,5.33,3.89,3.89,0,0,0-1.87,6.35A3.89,3.89,0,0,0,71.62,389.42Zm27.56-13a1.3,1.3,0,0,1,1.3-1.3H107v20.77h-6.49a1.3,1.3,0,0,1-1.3-1.3V376.45ZM77.12,388.13h-2.6a1.3,1.3,0,1,1,0-2.6h2.6a1.3,1.3,0,0,0,0-2.6h-2.6a1.3,1.3,0,1,1,0-2.6h2.6a1.3,1.3,0,0,0,0-2.6,1.3,1.3,0,0,1,0-2.6H88a11.66,11.66,0,0,1,3.69.6l4.9,1.63v16.06a10.46,10.46,0,0,0-5.83,3.79,18.94,18.94,0,0,0-3.81,7.31l-0.46,1.85H86.2a2.6,2.6,0,0,1-2.6-2.6v-1.3a20.54,20.54,0,0,1,1.24-6.58H87.5a1.3,1.3,0,0,0,0-2.6h-13a1.3,1.3,0,1,1,0-2.6h2.6A1.3,1.3,0,0,0,77.12,388.13Z" transform="translate(-55.45 -362.37)"/><circle cx="47.62" cy="16.67" r="1.3"/><path d="M84.9,416.85a1.3,1.3,0,0,0,1.3-1.3v-2.68a1.3,1.3,0,0,0-2.6,0v2.68A1.3,1.3,0,0,0,84.9,416.85Z" transform="translate(-55.45 -362.37)"/><path d="M90.41,411.13L92.25,413a1.3,1.3,0,1,0,1.84-1.84l-1.84-1.84A1.3,1.3,0,0,0,90.41,411.13Z" transform="translate(-55.45 -362.37)"/><path d="M75.73,413a1.3,1.3,0,0,0,1.84,0l1.84-1.84a1.3,1.3,0,0,0-1.84-1.84l-1.84,1.84A1.3,1.3,0,0,0,75.73,413Z" transform="translate(-55.45 -362.37)"/></svg>