<svg id="Capa_1" data-name="Capa 1" xmlns="http://www.w3.org/2000/svg" viewBox="0 0 67.13 52.91"><defs><style>.cls-1{fill:#859b35;}</style></defs><title>like</title><rect class="cls-1" y="8.24" width="67.13" height="44.67"/><path d="M108.57,1013.43a3.89,3.89,0,0,0-2.9-6.49H98.11a25.17,25.17,0,0,0,1.07-6.58v-1.3A5.2,5.2,0,0,0,94,993.87h-1.3a1.3,1.3,0,0,0-1.26,1l-0.71,2.83c-1,4-4.14,8.33-7.39,9.13a3.9,3.9,0,0,0-3.62-2.47H71.92a1.3,1.3,0,0,0-1.3,1.3V1029a1.3,1.3,0,0,0,1.3,1.3h7.79a3.9,3.9,0,0,0,3.51-2.22l4.46,1.49a14.25,14.25,0,0,0,4.51.73h10.87a3.89,3.89,0,0,0,3.62-5.33,59.72,59.72,0,0,1,2.87-8.95A3.88,3.88,0,0,0,108.57,1013.43Zm-27.56,13a1.3,1.3,0,0,1-1.3,1.3H73.22v-20.77h6.49a1.3,1.3,0,0,1,1.3,1.3v18.17Zm22.06-11.68h2.6a1.3,1.3,0,1,1,0,2.6h-2.6a1.3,1.3,0,1,0,0,2.6h2.6a1.3,1.3,0,0,1,0,2.6h-2.6a1.3,1.3,0,1,0,0,2.6,1.3,1.3,0,0,1,0,2.6H92.2a11.66,11.66,0,0,1-3.69-.6l-4.9-1.63v-16.06a10.46,10.46,0,0,0,5.83-3.79,18.94,18.94,0,0,0,3.81-7.31l0.46-1.85H94a2.6,2.6,0,0,1,2.6,2.6v1.3a20.54,20.54,0,0,1-1.24,6.58H92.69a1.3,1.3,0,0,0,0,2.6h13a1.3,1.3,0,1,1,0,2.6h-2.6A1.3,1.3,0,0,0,103.07,1014.73Z" transform="translate(-55.45 -986)"/><circle cx="21.66" cy="37.81" r="1.3"/><path d="M95.29,986a1.3,1.3,0,0,0-1.3,1.3V990a1.3,1.3,0,0,0,2.6,0V987.3A1.3,1.3,0,0,0,95.29,986Z" transform="translate(-55.45 -986)"/><path d="M89.78,991.72l-1.84-1.84a1.3,1.3,0,1,0-1.84,1.84l1.84,1.84A1.3,1.3,0,0,0,89.78,991.72Z" transform="translate(-55.45 -986)"/><path d="M104.46,989.89a1.3,1.3,0,0,0-1.84,0l-1.84,1.84a1.3,1.3,0,0,0,1.84,1.84l1.84-1.84A1.3,1.3,0,0,0,104.46,989.89Z" transform="translate(-55.45 -986)"/></svg>