<svg id="Capa_1" data-name="Capa 1" xmlns="http://www.w3.org/2000/svg" viewBox="0 0 188.56 25.37"><defs><style>.cls-1{fill:#595959;}</style></defs><title>titulo emclient</title><path class="cls-1" d="M114.13,1544.25v-0.07a0.21,0.21,0,0,0,0,0,0.84,0.84,0,0,0-.15-0.27v0l0,0a0.83,0.83,0,0,0-.21-0.16l-0.08,0a0.84,0.84,0,0,0-.32-0.07H76.1a0.82,0.82,0,0,0-.27,0l-0.08,0-0.16.09-0.07.06-0.11.13-0.05.08,0,0a0.81,0.81,0,0,0,0,.14s0,0,0,.06L71,1568a0.47,0.47,0,0,0,0,0,0.85,0.85,0,0,0,0,.27,0.15,0.15,0,0,0,0,.06,0.05,0.05,0,0,0,0,0,0.84,0.84,0,0,0,.15.27v0l0,0a0.82,0.82,0,0,0,.21.16l0.08,0a0.84,0.84,0,0,0,.32.07h37.21a0.84,0.84,0,0,0,.28,0l0.08,0,0.16-.09,0.08-.07,0.11-.13,0.06-.1s0,0,0-.07l0-.08,0-.06,4.23-23.68a0.47,0.47,0,0,0,0,0A0.83,0.83,0,0,0,114.13,1544.25Zm-3.49,1-20,14.1L78,1545.27h32.65Zm-34,1,9.54,10.66-13.1,9.28Zm-2.1,21,12.77-9,2.55,2.85a0.85,0.85,0,0,0,1.12.13l4.74-3.34,11.07,9.41H74.53Zm34-.75-11.37-9.67,15-10.54Z" transform="translate(-65.11 -1543.58)"/><path class="cls-1" d="M66,1546.11h6.77a0.85,0.85,0,0,0,0-1.69H66A0.85,0.85,0,0,0,66,1546.11Z" transform="translate(-65.11 -1543.58)"/><path class="cls-1" d="M71.87,1550.34a0.85,0.85,0,0,0-.85-0.85H66a0.85,0.85,0,0,0,0,1.69H71A0.85,0.85,0,0,0,71.87,1550.34Z" transform="translate(-65.11 -1543.58)"/><path class="cls-1" d="M69.34,1554.57H66a0.85,0.85,0,0,0,0,1.69h3.38A0.85,0.85,0,0,0,69.34,1554.57Z" transform="translate(-65.11 -1543.58)"/><path class="cls-1" d="M67.64,1559.64H66a0.85,0.85,0,1,0,0,1.69h1.69A0.85,0.85,0,1,0,67.64,1559.64Z" transform="translate(-65.11 -1543.58)"/><path class="cls-1" d="M123.56,1545.83h12.15l-0.62,3.47h-8.46l-0.73,4.17h6.52l-0.62,3.47h-6.52l-0.9,5h8.74l-0.62,3.47h-12.4Z" transform="translate(-65.11 -1543.58)"/><path class="cls-1" d="M140.78,1545.83h3.11l2.77,8.93,5.94-8.93h3.08l-0.81,19.6h-3.72l0.78-13-6.41,8.9-3.22-8.9-3.86,13H134.7Z" transform="translate(-65.11 -1543.58)"/><path class="cls-1" d="M168.44,1564.81a6.66,6.66,0,0,1-2.7-2.9,10.07,10.07,0,0,1-.94-4.52,12.32,12.32,0,0,1,1.53-6.12,11.35,11.35,0,0,1,4.12-4.28,10.87,10.87,0,0,1,5.7-1.55,12.7,12.7,0,0,1,2.76.31,8.63,8.63,0,0,1,2.34.84l-1,3.42a11.26,11.26,0,0,0-4.56-1.12,6.33,6.33,0,0,0-3.77,1.11,6.88,6.88,0,0,0-2.35,3,10.31,10.31,0,0,0-.8,4.1q0,5.32,4.56,5.32a13.88,13.88,0,0,0,4.93-1.12l-0.2,3.42a11.5,11.5,0,0,1-2.62.84,14.15,14.15,0,0,1-2.84.31A8.2,8.2,0,0,1,168.44,1564.81Z" transform="translate(-65.11 -1543.58)"/><path class="cls-1" d="M184.4,1545.83H188L185.15,1562h7.59l-0.62,3.47H181Z" transform="translate(-65.11 -1543.58)"/><path class="cls-1" d="M198.12,1545.83h3.58l-3.44,19.6h-3.58Z" transform="translate(-65.11 -1543.58)"/><path class="cls-1" d="M206,1545.83h12.15l-0.62,3.47h-8.46l-0.73,4.17h6.52l-0.62,3.47h-6.52l-0.9,5h8.74l-0.62,3.47H202.6Z" transform="translate(-65.11 -1543.58)"/><path class="cls-1" d="M221.58,1545.83h3.5l5.6,12.66,2.24-12.66h3.58l-3.47,19.6h-2.91l-6-13.44-2.38,13.44h-3.58Z" transform="translate(-65.11 -1543.58)"/><path class="cls-1" d="M244.18,1549.3h-5.29l0.62-3.47h14.17l-0.62,3.47h-5.29l-2.83,16.13h-3.58Z" transform="translate(-65.11 -1543.58)"/></svg>