<svg id="Capa_1" data-name="Capa 1" xmlns="http://www.w3.org/2000/svg" viewBox="0 0 132.45 25.37"><defs><style>.cls-1{fill:#595959;}</style></defs><title>titulo gmail</title><path class="cls-1" d="M114.13,306.2v-0.07a0.21,0.21,0,0,0,0,0,0.84,0.84,0,0,0-.15-0.27v0l0,0a0.83,0.83,0,0,0-.21-0.16l-0.08,0a0.84,0.84,0,0,0-.32-0.07H76.1a0.82,0.82,0,0,0-.27,0l-0.08,0-0.16.09-0.07.06-0.11.13-0.05.08,0,0a0.81,0.81,0,0,0,0,.14s0,0,0,.06L71,329.9a0.47,0.47,0,0,0,0,0,0.85,0.85,0,0,0,0,.27,0.15,0.15,0,0,0,0,.06,0.05,0.05,0,0,0,0,0,0.84,0.84,0,0,0,.15.27v0l0,0a0.82,0.82,0,0,0,.21.16l0.08,0a0.84,0.84,0,0,0,.32.07h37.21a0.84,0.84,0,0,0,.28,0l0.08,0,0.16-.09,0.08-.07,0.11-.13,0.06-.1s0,0,0-.07l0-.08,0-.06,4.23-23.68a0.47,0.47,0,0,0,0,0A0.83,0.83,0,0,0,114.13,306.2Zm-3.49,1-20,14.1L78,307.21h32.65Zm-34,1,9.54,10.66-13.1,9.28Zm-2.1,21,12.77-9L89.85,323a0.85,0.85,0,0,0,1.12.13l4.74-3.34,11.07,9.41H74.53Zm34-.75-11.37-9.67,15-10.54Z" transform="translate(-65.11 -305.52)"/><path class="cls-1" d="M66,308.06h6.77a0.85,0.85,0,1,0,0-1.69H66A0.85,0.85,0,0,0,66,308.06Z" transform="translate(-65.11 -305.52)"/><path class="cls-1" d="M71.87,312.28a0.85,0.85,0,0,0-.85-0.85H66a0.85,0.85,0,0,0,0,1.69H71A0.85,0.85,0,0,0,71.87,312.28Z" transform="translate(-65.11 -305.52)"/><path class="cls-1" d="M69.34,316.51H66a0.85,0.85,0,1,0,0,1.69h3.38A0.85,0.85,0,0,0,69.34,316.51Z" transform="translate(-65.11 -305.52)"/><path class="cls-1" d="M67.64,321.59H66a0.85,0.85,0,0,0,0,1.69h1.69A0.85,0.85,0,1,0,67.64,321.59Z" transform="translate(-65.11 -305.52)"/><path class="cls-1" d="M124.17,326.74a6.76,6.76,0,0,1-2.67-2.94,10.18,10.18,0,0,1-.94-4.52,12.3,12.3,0,0,1,1.51-6.06,11.24,11.24,0,0,1,4.1-4.28,10.87,10.87,0,0,1,5.7-1.55,15.26,15.26,0,0,1,3,.32,8.71,8.71,0,0,1,2.48.83l-1,3.42a12.89,12.89,0,0,0-2.39-.8,11.15,11.15,0,0,0-2.56-.32,6.22,6.22,0,0,0-3.77,1.13,7,7,0,0,0-2.34,3,9.9,9.9,0,0,0-.78,3.93,6.19,6.19,0,0,0,1.18,4,4.22,4.22,0,0,0,3.47,1.44,12.72,12.72,0,0,0,2.52-.31l0.62-3.5h-1.93l0.53-3h5.49l-1.54,8.74a11.36,11.36,0,0,1-3.08,1,17,17,0,0,1-3.58.43A7.8,7.8,0,0,1,124.17,326.74Z" transform="translate(-65.11 -305.52)"/><path class="cls-1" d="M143.32,307.77h3.11l2.77,8.93,5.94-8.93h3.08l-0.81,19.6h-3.72l0.78-13-6.41,8.9-3.22-8.9-3.86,13h-3.72Z" transform="translate(-65.11 -305.52)"/><path class="cls-1" d="M169.06,307.77h3.36l3.22,19.6h-3.72l-0.76-4.73h-6.1l-2.41,4.73h-3.72Zm1.48,11.4-0.81-5.74-2.83,5.74h3.64Z" transform="translate(-65.11 -305.52)"/><path class="cls-1" d="M181.29,307.77h3.58l-3.44,19.6h-3.58Z" transform="translate(-65.11 -305.52)"/><path class="cls-1" d="M189.21,307.77h3.58L190,323.9h7.59l-0.62,3.47H185.77Z" transform="translate(-65.11 -305.52)"/></svg>