<svg id="Capa_1" data-name="Capa 1" xmlns="http://www.w3.org/2000/svg" viewBox="0 0 522.55 160.77"><defs><style>.cls-1,.cls-2{fill:#fff;}.cls-2{opacity:0.5;}.cls-3{fill:#3f4d79;}.cls-4{fill:#ffb000;}.cls-5{fill:#595959;}.cls-6{fill:#212121;}</style></defs><title>titulo principal</title><path class="cls-1" d="M150.41,121.65a0.71,0.71,0,0,1,.53.24l1.48,1.61a8.16,8.16,0,0,1-3,2.34,10.44,10.44,0,0,1-4.32.81,10.2,10.2,0,0,1-4.05-.77,8.92,8.92,0,0,1-3.07-2.14,9.37,9.37,0,0,1-2-3.28,12.3,12.3,0,0,1-.68-4.16,11.19,11.19,0,0,1,.76-4.18,9.44,9.44,0,0,1,5.41-5.4,11.29,11.29,0,0,1,4.22-.76,10,10,0,0,1,3.94.72,9.21,9.21,0,0,1,2.89,1.91l-1.26,1.75a1.15,1.15,0,0,1-.29.29,0.81,0.81,0,0,1-.48.13,1.1,1.1,0,0,1-.66-0.25A8.14,8.14,0,0,0,149,110a6.94,6.94,0,0,0-1.31-.55,7.55,7.55,0,0,0-4.63.24,5.84,5.84,0,0,0-2.06,1.42,6.54,6.54,0,0,0-1.34,2.25,8.63,8.63,0,0,0-.48,3,8.86,8.86,0,0,0,.48,3,6.67,6.67,0,0,0,1.31,2.24,5.58,5.58,0,0,0,1.95,1.39,6,6,0,0,0,2.41.48,10.55,10.55,0,0,0,1.39-.08,5.93,5.93,0,0,0,1.15-.27,5.07,5.07,0,0,0,1-.47,6.18,6.18,0,0,0,.93-0.71,1.31,1.31,0,0,1,.29-0.2A0.74,0.74,0,0,1,150.41,121.65Z" transform="translate(-134.77 -49.04)"/><path class="cls-1" d="M161.21,111.84a7.87,7.87,0,0,1,2.92.52,6.3,6.3,0,0,1,2.23,1.47,6.51,6.51,0,0,1,1.43,2.32,9.62,9.62,0,0,1,0,6.15,6.65,6.65,0,0,1-1.43,2.34,6.2,6.2,0,0,1-2.23,1.48,8.5,8.5,0,0,1-5.84,0,6.26,6.26,0,0,1-2.25-1.48,6.67,6.67,0,0,1-1.44-2.34,9.49,9.49,0,0,1,0-6.15,6.53,6.53,0,0,1,1.44-2.32,6.35,6.35,0,0,1,2.25-1.47A7.93,7.93,0,0,1,161.21,111.84Zm0,12.14a3,3,0,0,0,2.65-1.2,6,6,0,0,0,.86-3.53,6.11,6.11,0,0,0-.86-3.54,3,3,0,0,0-2.65-1.22,3.07,3.07,0,0,0-2.69,1.23,6.07,6.07,0,0,0-.87,3.53,6,6,0,0,0,.87,3.52A3.08,3.08,0,0,0,161.21,124Z" transform="translate(-134.77 -49.04)"/><path class="cls-1" d="M171,126.42V112.06h2.11a0.85,0.85,0,0,1,.88.63l0.22,1.06A8.14,8.14,0,0,1,175,113a5.07,5.07,0,0,1,.88-0.6,4.78,4.78,0,0,1,1-.4,4.48,4.48,0,0,1,1.18-.15,3.35,3.35,0,0,1,2.23.73,4.43,4.43,0,0,1,1.31,2,4.39,4.39,0,0,1,.84-1.23,4.59,4.59,0,0,1,1.11-.83,5.11,5.11,0,0,1,1.28-.48,6.16,6.16,0,0,1,1.36-.15,5.74,5.74,0,0,1,2.11.36,4.06,4.06,0,0,1,1.55,1.06,4.69,4.69,0,0,1,1,1.71,7.45,7.45,0,0,1,.33,2.31v9.14h-3.46v-9.14a3.07,3.07,0,0,0-.6-2.06,2.21,2.21,0,0,0-1.76-.69,2.63,2.63,0,0,0-1,.18,2.35,2.35,0,0,0-.8.52,2.39,2.39,0,0,0-.54.86,3.34,3.34,0,0,0-.2,1.19v9.14h-3.47v-9.14a3.13,3.13,0,0,0-.58-2.1,2.17,2.17,0,0,0-1.71-.66,2.77,2.77,0,0,0-1.39.37,4.68,4.68,0,0,0-1.21,1v10.51H171Z" transform="translate(-134.77 -49.04)"/><path class="cls-1" d="M194.57,131.11V112.06h2.11a1,1,0,0,1,.57.15,0.72,0.72,0,0,1,.31.48l0.28,1.33a7.26,7.26,0,0,1,2-1.61,5.42,5.42,0,0,1,2.64-.62,4.71,4.71,0,0,1,2.15.49,4.83,4.83,0,0,1,1.68,1.42,6.83,6.83,0,0,1,1.09,2.3,11.56,11.56,0,0,1,.38,3.13,9.85,9.85,0,0,1-.43,3,7.29,7.29,0,0,1-1.24,2.38,5.72,5.72,0,0,1-1.95,1.58,5.66,5.66,0,0,1-2.55.57,5.13,5.13,0,0,1-2.06-.37,5,5,0,0,1-1.52-1v5.88h-3.46Zm6.72-16.59a3.53,3.53,0,0,0-1.84.46,5.32,5.32,0,0,0-1.42,1.28v6.44a3.29,3.29,0,0,0,1.28,1,3.86,3.86,0,0,0,1.49.29,3.35,3.35,0,0,0,1.42-.29,2.76,2.76,0,0,0,1.08-.9,4.43,4.43,0,0,0,.68-1.52,8.68,8.68,0,0,0,.24-2.16A9.61,9.61,0,0,0,204,117a4.13,4.13,0,0,0-.58-1.42,2.3,2.3,0,0,0-.92-0.8A2.86,2.86,0,0,0,201.29,114.52Z" transform="translate(-134.77 -49.04)"/><path class="cls-1" d="M221.66,126.42H220.1a1.67,1.67,0,0,1-.77-0.15,1,1,0,0,1-.42-0.6l-0.31-1a11.78,11.78,0,0,1-1.07.86,6.57,6.57,0,0,1-1.08.62,5.54,5.54,0,0,1-1.19.38,7.16,7.16,0,0,1-1.4.13,5.51,5.51,0,0,1-1.68-.25,3.61,3.61,0,0,1-1.32-.74,3.34,3.34,0,0,1-.86-1.22,4.35,4.35,0,0,1-.31-1.7,3.36,3.36,0,0,1,.43-1.61,4,4,0,0,1,1.42-1.43,9.07,9.07,0,0,1,2.65-1.06,16.88,16.88,0,0,1,4.1-.42v-0.85a3.21,3.21,0,0,0-.61-2.15,2.22,2.22,0,0,0-1.77-.7,4.29,4.29,0,0,0-1.4.2,5.43,5.43,0,0,0-1,.44l-0.76.44a1.55,1.55,0,0,1-.77.2,1,1,0,0,1-.6-0.18,1.43,1.43,0,0,1-.41-0.45l-0.63-1.11a8.54,8.54,0,0,1,6-2.27,5.77,5.77,0,0,1,2.25.41,4.78,4.78,0,0,1,1.67,1.15,4.92,4.92,0,0,1,1,1.76,6.76,6.76,0,0,1,.36,2.24v9.07Zm-6.72-2.16a4.64,4.64,0,0,0,1-.1,3.75,3.75,0,0,0,.85-0.29,4.53,4.53,0,0,0,.77-0.48,7,7,0,0,0,.75-0.67v-2.4a14.08,14.08,0,0,0-2.53.19,6.69,6.69,0,0,0-1.63.49,2.1,2.1,0,0,0-.87.69,1.54,1.54,0,0,0-.26.86,1.52,1.52,0,0,0,.54,1.31A2.32,2.32,0,0,0,214.94,124.27Z" transform="translate(-134.77 -49.04)"/><path class="cls-1" d="M225.06,126.42V112.06h2a1.09,1.09,0,0,1,.74.2,1.13,1.13,0,0,1,.28.67l0.21,1.74a6.82,6.82,0,0,1,1.81-2.1,3.8,3.8,0,0,1,2.32-.77,3,3,0,0,1,1.76.49l-0.45,2.59a0.54,0.54,0,0,1-.18.36,0.62,0.62,0,0,1-.38.1,2.35,2.35,0,0,1-.57-0.1,3.86,3.86,0,0,0-1-.1,2.93,2.93,0,0,0-1.85.6,4.58,4.58,0,0,0-1.3,1.74v8.95h-3.46Z" transform="translate(-134.77 -49.04)"/><path class="cls-1" d="M247.35,126.42h-1.55a1.67,1.67,0,0,1-.77-0.15,1,1,0,0,1-.42-0.6l-0.31-1a11.78,11.78,0,0,1-1.07.86,6.57,6.57,0,0,1-1.08.62,5.54,5.54,0,0,1-1.19.38,7.16,7.16,0,0,1-1.4.13,5.51,5.51,0,0,1-1.68-.25,3.61,3.61,0,0,1-1.32-.74,3.34,3.34,0,0,1-.86-1.22,4.35,4.35,0,0,1-.31-1.7,3.36,3.36,0,0,1,.43-1.61,4,4,0,0,1,1.42-1.43,9.07,9.07,0,0,1,2.65-1.06,16.88,16.88,0,0,1,4.1-.42v-0.85a3.21,3.21,0,0,0-.61-2.15,2.22,2.22,0,0,0-1.77-.7,4.29,4.29,0,0,0-1.4.2,5.43,5.43,0,0,0-1,.44l-0.76.44a1.55,1.55,0,0,1-.77.2,1,1,0,0,1-.6-0.18,1.43,1.43,0,0,1-.41-0.45L236,114.06a8.54,8.54,0,0,1,6-2.27,5.77,5.77,0,0,1,2.25.41,4.78,4.78,0,0,1,1.67,1.15,4.92,4.92,0,0,1,1,1.76,6.76,6.76,0,0,1,.36,2.24v9.07Zm-6.72-2.16a4.64,4.64,0,0,0,1-.1,3.75,3.75,0,0,0,.85-0.29,4.53,4.53,0,0,0,.77-0.48,7,7,0,0,0,.75-0.67v-2.4a14.08,14.08,0,0,0-2.53.19,6.69,6.69,0,0,0-1.63.49,2.1,2.1,0,0,0-.87.69,1.54,1.54,0,0,0-.26.86,1.52,1.52,0,0,0,.54,1.31A2.32,2.32,0,0,0,240.63,124.27Z" transform="translate(-134.77 -49.04)"/><path class="cls-1" d="M255.47,126.65a3.78,3.78,0,0,1-2.87-1.06,4.06,4.06,0,0,1-1-2.92v-8h-1.46a0.66,0.66,0,0,1-.69-0.73v-1.37l2.31-.38,0.73-3.92a0.69,0.69,0,0,1,.26-0.43,0.82,0.82,0,0,1,.51-0.15H255v4.52h3.78v2.46H255v7.78a1.53,1.53,0,0,0,.34,1.05,1.14,1.14,0,0,0,.9.38,1.62,1.62,0,0,0,.54-0.08,3,3,0,0,0,.38-0.16l0.29-.16a0.48,0.48,0,0,1,.25-0.08,0.4,0.4,0,0,1,.25.08,1.17,1.17,0,0,1,.21.23l1,1.68a5.23,5.23,0,0,1-1.74,1A6.46,6.46,0,0,1,255.47,126.65Z" transform="translate(-134.77 -49.04)"/><path class="cls-1" d="M265.79,107.87a2,2,0,0,1-.18.84,2.28,2.28,0,0,1-1.19,1.15,2.16,2.16,0,0,1-.87.18,2.08,2.08,0,0,1-.85-0.18,2.23,2.23,0,0,1-.69-0.47,2.27,2.27,0,0,1-.47-0.69,2,2,0,0,1-.17-0.84,2.17,2.17,0,0,1,.17-0.87,2.19,2.19,0,0,1,1.16-1.17,2.09,2.09,0,0,1,.85-0.18,2.17,2.17,0,0,1,.87.18,2.31,2.31,0,0,1,.71.47,2.27,2.27,0,0,1,.48.7A2.1,2.1,0,0,1,265.79,107.87Zm-0.52,4.19v14.36h-3.46V112.06h3.46Z" transform="translate(-134.77 -49.04)"/><path class="cls-1" d="M276.37,126.42h-3.14l-5.71-14.36h2.87a1.08,1.08,0,0,1,.64.18,0.94,0.94,0,0,1,.36.46l2.77,7.67q0.24,0.67.4,1.32t0.29,1.29q0.13-.64.29-1.29a12,12,0,0,1,.41-1.32l2.84-7.67a1,1,0,0,1,.35-0.46,1,1,0,0,1,.6-0.18h2.73Z" transform="translate(-134.77 -49.04)"/><path class="cls-1" d="M295.37,126.42h-1.55a1.67,1.67,0,0,1-.77-0.15,1,1,0,0,1-.42-0.6l-0.31-1a11.78,11.78,0,0,1-1.07.86,6.57,6.57,0,0,1-1.08.62,5.54,5.54,0,0,1-1.19.38,7.16,7.16,0,0,1-1.4.13,5.51,5.51,0,0,1-1.68-.25,3.61,3.61,0,0,1-1.32-.74,3.34,3.34,0,0,1-.86-1.22,4.35,4.35,0,0,1-.31-1.7,3.36,3.36,0,0,1,.43-1.61,4,4,0,0,1,1.42-1.43,9.07,9.07,0,0,1,2.65-1.06,16.88,16.88,0,0,1,4.1-.42v-0.85a3.21,3.21,0,0,0-.61-2.15,2.22,2.22,0,0,0-1.77-.7,4.29,4.29,0,0,0-1.4.2,5.43,5.43,0,0,0-1,.44l-0.76.44a1.55,1.55,0,0,1-.77.2,1,1,0,0,1-.6-0.18,1.43,1.43,0,0,1-.41-0.45l-0.63-1.11a8.54,8.54,0,0,1,6-2.27,5.77,5.77,0,0,1,2.25.41,4.78,4.78,0,0,1,1.67,1.15,4.92,4.92,0,0,1,1,1.76,6.76,6.76,0,0,1,.36,2.24v9.07Zm-6.72-2.16a4.64,4.64,0,0,0,1-.1,3.75,3.75,0,0,0,.85-0.29,4.53,4.53,0,0,0,.77-0.48,7,7,0,0,0,.75-0.67v-2.4a14.08,14.08,0,0,0-2.53.19,6.69,6.69,0,0,0-1.63.49,2.1,2.1,0,0,0-.87.69,1.54,1.54,0,0,0-.26.86,1.52,1.52,0,0,0,.54,1.31A2.32,2.32,0,0,0,288.65,124.27Z" transform="translate(-134.77 -49.04)"/><path class="cls-1" d="M314.27,115.1a1.73,1.73,0,0,1-.3.31,0.7,0.7,0,0,1-.43.11,1,1,0,0,1-.52-0.16l-0.6-.36a4.54,4.54,0,0,0-.83-0.36,3.83,3.83,0,0,0-1.2-.16,3.65,3.65,0,0,0-1.6.33,3,3,0,0,0-1.14.94,4.26,4.26,0,0,0-.68,1.49,8,8,0,0,0-.22,2,7.76,7.76,0,0,0,.25,2,4.36,4.36,0,0,0,.71,1.5,3,3,0,0,0,1.12.92,3.39,3.39,0,0,0,1.48.31,3.68,3.68,0,0,0,1.34-.2,4.2,4.2,0,0,0,.86-0.45l0.61-.45a0.92,0.92,0,0,1,.58-0.2,0.7,0.7,0,0,1,.63.32l1,1.26a6.25,6.25,0,0,1-1.25,1.13,6.73,6.73,0,0,1-1.39.73,7.11,7.11,0,0,1-1.49.39,10.65,10.65,0,0,1-1.53.11,6.37,6.37,0,0,1-2.51-.5,5.85,5.85,0,0,1-2.05-1.45,7,7,0,0,1-1.39-2.33,9,9,0,0,1-.51-3.14,9.14,9.14,0,0,1,.46-2.93,6.64,6.64,0,0,1,1.34-2.34,6.13,6.13,0,0,1,2.18-1.55,7.52,7.52,0,0,1,3-.56,7.13,7.13,0,0,1,2.82.52,6.89,6.89,0,0,1,2.18,1.48Z" transform="translate(-134.77 -49.04)"/><path class="cls-1" d="M323.66,111.84a7.87,7.87,0,0,1,2.92.52,6.3,6.3,0,0,1,2.23,1.47,6.51,6.51,0,0,1,1.43,2.32,9.62,9.62,0,0,1,0,6.15,6.65,6.65,0,0,1-1.43,2.34,6.2,6.2,0,0,1-2.23,1.48,8.5,8.5,0,0,1-5.84,0,6.26,6.26,0,0,1-2.25-1.48,6.67,6.67,0,0,1-1.44-2.34,9.49,9.49,0,0,1,0-6.15,6.53,6.53,0,0,1,1.44-2.32,6.35,6.35,0,0,1,2.25-1.47A7.93,7.93,0,0,1,323.66,111.84Zm0,12.14a3,3,0,0,0,2.65-1.2,6,6,0,0,0,.86-3.53,6.11,6.11,0,0,0-.86-3.54,3,3,0,0,0-2.65-1.22,3.07,3.07,0,0,0-2.69,1.23,6.07,6.07,0,0,0-.87,3.53,6,6,0,0,0,.87,3.52A3.08,3.08,0,0,0,323.66,124Z" transform="translate(-134.77 -49.04)"/><path class="cls-1" d="M333.45,126.42V112.06h2a1.09,1.09,0,0,1,.74.2,1.13,1.13,0,0,1,.28.67l0.21,1.74a6.82,6.82,0,0,1,1.81-2.1,3.8,3.8,0,0,1,2.32-.77,3,3,0,0,1,1.76.49l-0.45,2.59a0.54,0.54,0,0,1-.18.36,0.62,0.62,0,0,1-.38.1,2.35,2.35,0,0,1-.57-0.1,3.86,3.86,0,0,0-1-.1,2.93,2.93,0,0,0-1.85.6,4.58,4.58,0,0,0-1.3,1.74v8.95h-3.46Z" transform="translate(-134.77 -49.04)"/><path class="cls-1" d="M344.88,126.42V112.06h2a1.09,1.09,0,0,1,.74.2,1.13,1.13,0,0,1,.28.67l0.21,1.74a6.82,6.82,0,0,1,1.81-2.1,3.8,3.8,0,0,1,2.32-.77,3,3,0,0,1,1.76.49l-0.45,2.59a0.54,0.54,0,0,1-.18.36,0.62,0.62,0,0,1-.38.1,2.35,2.35,0,0,1-.57-0.1,3.86,3.86,0,0,0-1-.1,2.93,2.93,0,0,0-1.85.6,4.58,4.58,0,0,0-1.3,1.74v8.95h-3.46Z" transform="translate(-134.77 -49.04)"/><path class="cls-1" d="M362.26,111.84a7,7,0,0,1,2.5.43,5.47,5.47,0,0,1,2,1.27,5.79,5.79,0,0,1,1.29,2,7.72,7.72,0,0,1,.46,2.76,5,5,0,0,1,0,.65,1,1,0,0,1-.13.41,0.51,0.51,0,0,1-.24.21,1,1,0,0,1-.39.06H358.8a4.94,4.94,0,0,0,1.19,3.25,3.71,3.71,0,0,0,2.74,1,4.75,4.75,0,0,0,1.45-.2,6.7,6.7,0,0,0,1.06-.43l0.8-.43a1.34,1.34,0,0,1,.67-0.2,0.75,0.75,0,0,1,.36.08,0.82,0.82,0,0,1,.27.24l1,1.26a5.76,5.76,0,0,1-1.29,1.13,7.22,7.22,0,0,1-1.49.73,8.18,8.18,0,0,1-1.58.39,11.4,11.4,0,0,1-1.56.11,7.68,7.68,0,0,1-2.79-.5,6.24,6.24,0,0,1-2.24-1.47,6.89,6.89,0,0,1-1.5-2.41,9.31,9.31,0,0,1-.55-3.33,8,8,0,0,1,.48-2.76,6.65,6.65,0,0,1,1.37-2.25,6.42,6.42,0,0,1,2.17-1.52A7.14,7.14,0,0,1,362.26,111.84Zm0.07,2.48a3.2,3.2,0,0,0-2.37.85,4.21,4.21,0,0,0-1.09,2.42h6.5a4.32,4.32,0,0,0-.18-1.27,2.93,2.93,0,0,0-.56-1,2.66,2.66,0,0,0-1-.71A3.25,3.25,0,0,0,362.33,114.31Z" transform="translate(-134.77 -49.04)"/><path class="cls-1" d="M377.42,111.84a7.87,7.87,0,0,1,2.92.52,6.3,6.3,0,0,1,2.23,1.47,6.51,6.51,0,0,1,1.43,2.32,9.62,9.62,0,0,1,0,6.15,6.65,6.65,0,0,1-1.43,2.34,6.2,6.2,0,0,1-2.23,1.48,8.5,8.5,0,0,1-5.84,0,6.26,6.26,0,0,1-2.25-1.48,6.67,6.67,0,0,1-1.44-2.34,9.49,9.49,0,0,1,0-6.15,6.53,6.53,0,0,1,1.44-2.32,6.35,6.35,0,0,1,2.25-1.47A7.93,7.93,0,0,1,377.42,111.84Zm0,12.14a3,3,0,0,0,2.65-1.2,6,6,0,0,0,.86-3.53,6.11,6.11,0,0,0-.86-3.54,3,3,0,0,0-2.65-1.22,3.07,3.07,0,0,0-2.69,1.23,6.07,6.07,0,0,0-.87,3.53,6,6,0,0,0,.87,3.52A3.08,3.08,0,0,0,377.42,124Z" transform="translate(-134.77 -49.04)"/><path class="cls-1" d="M136.92,160V148.26l-1.25-.2a1.32,1.32,0,0,1-.65-0.28,0.73,0.73,0,0,1-.25-0.59v-1.41h2.14v-1.06a6.21,6.21,0,0,1,.37-2.21,4.48,4.48,0,0,1,2.75-2.72,6.48,6.48,0,0,1,2.24-.36,6.19,6.19,0,0,1,1.85.27l-0.07,1.74a0.5,0.5,0,0,1-.38.5,3,3,0,0,1-.81.1,4.14,4.14,0,0,0-1.1.13,1.85,1.85,0,0,0-.82.46,2.09,2.09,0,0,0-.51.87,4.38,4.38,0,0,0-.17,1.34v1H144v2.46h-3.63V160h-3.46Z" transform="translate(-134.77 -49.04)"/><path class="cls-1" d="M157.37,160h-1.55a1.67,1.67,0,0,1-.77-0.15,1,1,0,0,1-.42-0.6l-0.31-1a11.78,11.78,0,0,1-1.07.86,6.57,6.57,0,0,1-1.08.62,5.54,5.54,0,0,1-1.19.38,7.16,7.16,0,0,1-1.4.13,5.51,5.51,0,0,1-1.68-.25,3.61,3.61,0,0,1-1.32-.74,3.34,3.34,0,0,1-.86-1.22,4.35,4.35,0,0,1-.31-1.7,3.36,3.36,0,0,1,.43-1.61,4,4,0,0,1,1.42-1.43,9.07,9.07,0,0,1,2.65-1.06,16.88,16.88,0,0,1,4.1-.42V151a3.21,3.21,0,0,0-.61-2.15,2.22,2.22,0,0,0-1.77-.7,4.29,4.29,0,0,0-1.4.2,5.43,5.43,0,0,0-1,.44l-0.76.44a1.55,1.55,0,0,1-.77.2,1,1,0,0,1-.6-0.18,1.43,1.43,0,0,1-.41-0.45l-0.63-1.11a8.54,8.54,0,0,1,6-2.27,5.77,5.77,0,0,1,2.25.41A4.78,4.78,0,0,1,156,147a4.92,4.92,0,0,1,1,1.76,6.76,6.76,0,0,1,.36,2.24V160Zm-6.72-2.16a4.64,4.64,0,0,0,1-.1,3.75,3.75,0,0,0,.85-0.29,4.53,4.53,0,0,0,.77-0.48,7,7,0,0,0,.75-0.67v-2.4a14.08,14.08,0,0,0-2.53.19,6.69,6.69,0,0,0-1.63.49,2.1,2.1,0,0,0-.87.69,1.54,1.54,0,0,0-.26.86,1.52,1.52,0,0,0,.54,1.31A2.32,2.32,0,0,0,150.65,157.87Z" transform="translate(-134.77 -49.04)"/><path class="cls-1" d="M164.45,139.22V160H161v-20.8h3.46Z" transform="translate(-134.77 -49.04)"/><path class="cls-1" d="M176.89,148.46a0.92,0.92,0,0,1-.29.31,0.76,0.76,0,0,1-.39.09,1.24,1.24,0,0,1-.54-0.14l-0.67-.31a6.14,6.14,0,0,0-.86-0.32A4.15,4.15,0,0,0,173,148a2.66,2.66,0,0,0-1.61.43,1.35,1.35,0,0,0-.59,1.13,1.08,1.08,0,0,0,.3.78,2.71,2.71,0,0,0,.8.55,7.82,7.82,0,0,0,1.13.43l1.29,0.41q0.66,0.22,1.29.51a4.49,4.49,0,0,1,1.13.73,3.2,3.2,0,0,1,1.1,2.54,4.77,4.77,0,0,1-.38,1.91,4.21,4.21,0,0,1-1.11,1.51,5.18,5.18,0,0,1-1.8,1,8.37,8.37,0,0,1-3.91.22,8.56,8.56,0,0,1-1.36-.37,7.5,7.5,0,0,1-1.2-.56,5.87,5.87,0,0,1-1-.7l0.8-1.32a1.13,1.13,0,0,1,.36-0.36,1,1,0,0,1,.53-0.13,1.12,1.12,0,0,1,.61.18l0.67,0.39a5.89,5.89,0,0,0,.89.39,3.92,3.92,0,0,0,1.3.18,3.36,3.36,0,0,0,1.06-.15,2.23,2.23,0,0,0,.73-0.38,1.45,1.45,0,0,0,.42-0.55,1.65,1.65,0,0,0,.13-0.65,1.16,1.16,0,0,0-.3-0.83,2.63,2.63,0,0,0-.8-0.56,7.72,7.72,0,0,0-1.13-.43l-1.3-.41a11.92,11.92,0,0,1-1.3-.52,4.43,4.43,0,0,1-1.13-.76,3.44,3.44,0,0,1-.8-1.13,4,4,0,0,1-.3-1.62,4.14,4.14,0,0,1,.35-1.68,3.94,3.94,0,0,1,1-1.39,5.09,5.09,0,0,1,1.69-1,7,7,0,0,1,2.34-.36,7.18,7.18,0,0,1,2.7.49,6.12,6.12,0,0,1,2,1.29Z" transform="translate(-134.77 -49.04)"/><path class="cls-1" d="M186.73,145.44a7.87,7.87,0,0,1,2.92.52,6.3,6.3,0,0,1,2.23,1.47,6.51,6.51,0,0,1,1.43,2.32,9.62,9.62,0,0,1,0,6.15,6.65,6.65,0,0,1-1.43,2.34,6.2,6.2,0,0,1-2.23,1.48,8.5,8.5,0,0,1-5.84,0,6.26,6.26,0,0,1-2.25-1.48,6.67,6.67,0,0,1-1.44-2.34,9.49,9.49,0,0,1,0-6.15,6.53,6.53,0,0,1,1.44-2.32A6.35,6.35,0,0,1,183.8,146,7.93,7.93,0,0,1,186.73,145.44Zm0,12.14a3,3,0,0,0,2.65-1.2,6,6,0,0,0,.86-3.53,6.11,6.11,0,0,0-.86-3.54,3,3,0,0,0-2.65-1.22,3.07,3.07,0,0,0-2.69,1.23,6.07,6.07,0,0,0-.87,3.53,6,6,0,0,0,.87,3.52A3.08,3.08,0,0,0,186.73,157.57Z" transform="translate(-134.77 -49.04)"/><path class="cls-1" d="M207,164a1.34,1.34,0,0,1-.4.55,1.22,1.22,0,0,1-.75.19h-2.58L206,159l-5.81-13.3h3a1,1,0,0,1,.64.2,1.29,1.29,0,0,1,.34.45l3.07,7.45a6.61,6.61,0,0,1,.27.76q0.11,0.39.2,0.78,0.11-.41.25-0.78t0.29-.77l2.88-7.43a1,1,0,0,1,.37-0.46,1,1,0,0,1,.58-0.18h2.77Z" transform="translate(-134.77 -49.04)"/><path class="cls-1" d="M229.46,160h-3.14l-5.71-14.36h2.87a1.08,1.08,0,0,1,.64.18,0.94,0.94,0,0,1,.36.46l2.77,7.67q0.24,0.67.4,1.32t0.29,1.29q0.13-.64.29-1.29a12,12,0,0,1,.41-1.32l2.84-7.67a1,1,0,0,1,.35-0.46,1,1,0,0,1,.6-0.18h2.73Z" transform="translate(-134.77 -49.04)"/><path class="cls-1" d="M242.67,145.44a7,7,0,0,1,2.5.43,5.47,5.47,0,0,1,2,1.27,5.79,5.79,0,0,1,1.29,2,7.72,7.72,0,0,1,.46,2.76,5,5,0,0,1,0,.65,1,1,0,0,1-.13.41,0.51,0.51,0,0,1-.24.21,1,1,0,0,1-.39.06h-8.88a4.94,4.94,0,0,0,1.19,3.25,3.71,3.71,0,0,0,2.74,1,4.75,4.75,0,0,0,1.45-.2,6.7,6.7,0,0,0,1.06-.43l0.8-.43a1.34,1.34,0,0,1,.67-0.2,0.75,0.75,0,0,1,.36.08,0.82,0.82,0,0,1,.27.24l1,1.26a5.76,5.76,0,0,1-1.29,1.13,7.22,7.22,0,0,1-1.49.73,8.18,8.18,0,0,1-1.58.39,11.4,11.4,0,0,1-1.56.11,7.68,7.68,0,0,1-2.79-.5,6.24,6.24,0,0,1-2.24-1.47,6.89,6.89,0,0,1-1.5-2.41,9.31,9.31,0,0,1-.55-3.33,8,8,0,0,1,.48-2.76,6.65,6.65,0,0,1,1.37-2.25,6.42,6.42,0,0,1,2.17-1.52A7.14,7.14,0,0,1,242.67,145.44Zm0.07,2.48a3.2,3.2,0,0,0-2.37.85,4.21,4.21,0,0,0-1.09,2.42h6.5a4.32,4.32,0,0,0-.18-1.27,2.93,2.93,0,0,0-.56-1,2.66,2.66,0,0,0-1-.71A3.25,3.25,0,0,0,242.74,147.91Z" transform="translate(-134.77 -49.04)"/><path class="cls-1" d="M251.7,160V145.66h2a1.09,1.09,0,0,1,.74.2,1.13,1.13,0,0,1,.28.67l0.21,1.74a6.82,6.82,0,0,1,1.81-2.1,3.8,3.8,0,0,1,2.32-.77,3,3,0,0,1,1.76.49l-0.45,2.59a0.54,0.54,0,0,1-.18.36,0.62,0.62,0,0,1-.38.1,2.35,2.35,0,0,1-.57-0.1,3.86,3.86,0,0,0-1-.1,2.93,2.93,0,0,0-1.85.6,4.58,4.58,0,0,0-1.3,1.74V160H251.7Z" transform="translate(-134.77 -49.04)"/><path class="cls-1" d="M273.25,160a0.85,0.85,0,0,1-.88-0.63L272.09,158a8.59,8.59,0,0,1-.94.91,5.93,5.93,0,0,1-1.06.7,5.49,5.49,0,0,1-1.22.45,5.85,5.85,0,0,1-1.41.16,4.68,4.68,0,0,1-3.84-1.91,6.81,6.81,0,0,1-1.09-2.3,11.64,11.64,0,0,1-.38-3.14,9.78,9.78,0,0,1,.43-3,7.21,7.21,0,0,1,1.25-2.38,5.81,5.81,0,0,1,1.95-1.58,5.62,5.62,0,0,1,2.55-.57,5,5,0,0,1,2.06.38,5.39,5.39,0,0,1,1.53,1v-7.59h3.46V160h-2.11Zm-4.61-2.53a3.54,3.54,0,0,0,1.83-.45,5.44,5.44,0,0,0,1.43-1.27v-6.44a3.4,3.4,0,0,0-1.28-1,3.78,3.78,0,0,0-1.49-.29,3.35,3.35,0,0,0-1.42.29,2.78,2.78,0,0,0-1.08.89,4.36,4.36,0,0,0-.68,1.51,8.68,8.68,0,0,0-.24,2.16,9.61,9.61,0,0,0,.2,2.14,4.2,4.2,0,0,0,.58,1.43,2.21,2.21,0,0,0,.92.8A3,3,0,0,0,268.64,157.49Z" transform="translate(-134.77 -49.04)"/><path class="cls-1" d="M290.35,160H288.8a1.67,1.67,0,0,1-.77-0.15,1,1,0,0,1-.42-0.6l-0.31-1a11.78,11.78,0,0,1-1.07.86,6.57,6.57,0,0,1-1.08.62,5.54,5.54,0,0,1-1.19.38,7.16,7.16,0,0,1-1.4.13,5.51,5.51,0,0,1-1.68-.25,3.61,3.61,0,0,1-1.32-.74,3.34,3.34,0,0,1-.86-1.22,4.35,4.35,0,0,1-.31-1.7,3.36,3.36,0,0,1,.43-1.61,4,4,0,0,1,1.42-1.43,9.07,9.07,0,0,1,2.65-1.06,16.88,16.88,0,0,1,4.1-.42V151a3.21,3.21,0,0,0-.61-2.15,2.22,2.22,0,0,0-1.77-.7,4.29,4.29,0,0,0-1.4.2,5.43,5.43,0,0,0-1,.44l-0.76.44a1.55,1.55,0,0,1-.77.2,1,1,0,0,1-.6-0.18,1.43,1.43,0,0,1-.41-0.45l-0.63-1.11a8.54,8.54,0,0,1,6-2.27,5.77,5.77,0,0,1,2.25.41A4.78,4.78,0,0,1,289,147a4.92,4.92,0,0,1,1,1.76,6.76,6.76,0,0,1,.36,2.24V160Zm-6.72-2.16a4.64,4.64,0,0,0,1-.1,3.75,3.75,0,0,0,.85-0.29,4.53,4.53,0,0,0,.77-0.48,7,7,0,0,0,.75-0.67v-2.4a14.08,14.08,0,0,0-2.53.19,6.69,6.69,0,0,0-1.63.49,2.1,2.1,0,0,0-.87.69,1.54,1.54,0,0,0-.26.86,1.52,1.52,0,0,0,.54,1.31A2.32,2.32,0,0,0,283.63,157.87Z" transform="translate(-134.77 -49.04)"/><path class="cls-1" d="M303.86,160a0.85,0.85,0,0,1-.88-0.63L302.7,158a8.59,8.59,0,0,1-.94.91,5.93,5.93,0,0,1-1.06.7,5.49,5.49,0,0,1-1.22.45,5.85,5.85,0,0,1-1.41.16,4.68,4.68,0,0,1-3.84-1.91,6.81,6.81,0,0,1-1.09-2.3,11.64,11.64,0,0,1-.38-3.14,9.78,9.78,0,0,1,.43-3,7.21,7.21,0,0,1,1.25-2.38,5.81,5.81,0,0,1,1.95-1.58,5.62,5.62,0,0,1,2.55-.57,5,5,0,0,1,2.06.38,5.39,5.39,0,0,1,1.53,1v-7.59H306V160h-2.11Zm-4.61-2.53a3.54,3.54,0,0,0,1.83-.45,5.44,5.44,0,0,0,1.43-1.27v-6.44a3.4,3.4,0,0,0-1.28-1,3.78,3.78,0,0,0-1.49-.29,3.35,3.35,0,0,0-1.42.29,2.78,2.78,0,0,0-1.08.89,4.36,4.36,0,0,0-.68,1.51,8.68,8.68,0,0,0-.24,2.16,9.61,9.61,0,0,0,.2,2.14,4.2,4.2,0,0,0,.58,1.43,2.21,2.21,0,0,0,.92.8A3,3,0,0,0,299.26,157.49Z" transform="translate(-134.77 -49.04)"/><path class="cls-1" d="M315.65,145.44a7,7,0,0,1,2.5.43,5.47,5.47,0,0,1,2,1.27,5.79,5.79,0,0,1,1.29,2,7.72,7.72,0,0,1,.46,2.76,5,5,0,0,1,0,.65,1,1,0,0,1-.13.41,0.51,0.51,0,0,1-.24.21,1,1,0,0,1-.39.06h-8.88a4.94,4.94,0,0,0,1.19,3.25,3.71,3.71,0,0,0,2.74,1,4.75,4.75,0,0,0,1.45-.2,6.7,6.7,0,0,0,1.06-.43l0.8-.43a1.34,1.34,0,0,1,.67-0.2,0.75,0.75,0,0,1,.36.08,0.82,0.82,0,0,1,.27.24l1,1.26a5.76,5.76,0,0,1-1.29,1.13,7.22,7.22,0,0,1-1.49.73,8.18,8.18,0,0,1-1.58.39,11.4,11.4,0,0,1-1.56.11,7.68,7.68,0,0,1-2.79-.5,6.24,6.24,0,0,1-2.24-1.47,6.89,6.89,0,0,1-1.5-2.41,9.31,9.31,0,0,1-.55-3.33,8,8,0,0,1,.48-2.76,6.65,6.65,0,0,1,1.37-2.25,6.42,6.42,0,0,1,2.17-1.52A7.14,7.14,0,0,1,315.65,145.44Zm0.07,2.48a3.2,3.2,0,0,0-2.37.85,4.21,4.21,0,0,0-1.09,2.42h6.5a4.32,4.32,0,0,0-.18-1.27,2.93,2.93,0,0,0-.56-1,2.66,2.66,0,0,0-1-.71A3.25,3.25,0,0,0,315.72,147.91Z" transform="translate(-134.77 -49.04)"/><path class="cls-1" d="M324.68,160V145.66h2a1.09,1.09,0,0,1,.74.2,1.13,1.13,0,0,1,.28.67l0.21,1.74a6.82,6.82,0,0,1,1.81-2.1,3.8,3.8,0,0,1,2.32-.77,3,3,0,0,1,1.76.49l-0.45,2.59a0.54,0.54,0,0,1-.18.36,0.62,0.62,0,0,1-.38.1,2.35,2.35,0,0,1-.57-0.1,3.86,3.86,0,0,0-1-.1,2.93,2.93,0,0,0-1.85.6,4.58,4.58,0,0,0-1.3,1.74V160h-3.46Z" transform="translate(-134.77 -49.04)"/><path class="cls-1" d="M342.25,145.44a7.87,7.87,0,0,1,2.92.52,6.3,6.3,0,0,1,2.23,1.47,6.51,6.51,0,0,1,1.43,2.32,9.62,9.62,0,0,1,0,6.15,6.65,6.65,0,0,1-1.43,2.34,6.2,6.2,0,0,1-2.23,1.48,8.5,8.5,0,0,1-5.84,0,6.26,6.26,0,0,1-2.25-1.48,6.67,6.67,0,0,1-1.44-2.34,9.49,9.49,0,0,1,0-6.15,6.53,6.53,0,0,1,1.44-2.32,6.35,6.35,0,0,1,2.25-1.47A7.93,7.93,0,0,1,342.25,145.44Zm0,12.14a3,3,0,0,0,2.65-1.2,6,6,0,0,0,.86-3.53,6.11,6.11,0,0,0-.86-3.54,3,3,0,0,0-2.65-1.22,3.07,3.07,0,0,0-2.69,1.23,6.07,6.07,0,0,0-.87,3.53,6,6,0,0,0,.87,3.52A3.08,3.08,0,0,0,342.25,157.57Z" transform="translate(-134.77 -49.04)"/><rect class="cls-2" x="291.9" y="0.46" width="230.18" height="159.85" rx="12.95" ry="12.95"/><path class="cls-3" d="M643,209.81H440.54a14.35,14.35,0,0,1-14.33-14.33V63.37A14.35,14.35,0,0,1,440.54,49H643a14.34,14.34,0,0,1,14.33,14.33V195.48A14.34,14.34,0,0,1,643,209.81ZM440.54,50a13.42,13.42,0,0,0-13.4,13.4V195.48a13.42,13.42,0,0,0,13.4,13.4H643a13.42,13.42,0,0,0,13.4-13.4V63.37A13.42,13.42,0,0,0,643,50H440.54Z" transform="translate(-134.77 -49.04)"/><line class="cls-1" x1="291.9" y1="22.1" x2="522.08" y2="22.1"/><rect class="cls-3" x="291.9" y="21.63" width="230.18" height="0.93"/><circle class="cls-4" cx="313.38" cy="11.95" r="4.52"/><circle class="cls-3" cx="325.31" cy="11.95" r="4.52"/><circle class="cls-3" cx="336.92" cy="11.95" r="4.52"/><rect class="cls-1" x="365.33" y="55.03" width="91.41" height="57.06"/><polygon class="cls-5" points="456.74 55.03 411.03 83.56 365.33 55.03 456.74 55.03"/><circle class="cls-6" cx="458.88" cy="53.21" r="9.1"/><polygon class="cls-4" points="454.59 59.72 450.77 53.7 453.56 51.93 455.12 54.38 462.44 46.71 464.84 48.99 454.59 59.72"/></svg>