<svg id="Capa_1" data-name="Capa 1" xmlns="http://www.w3.org/2000/svg" viewBox="0 0 242.57 25.37"><defs><style>.cls-1{fill:#595959;}</style></defs><title>titulo thunderbird</title><path class="cls-1" d="M110.72,5821V5821a0.21,0.21,0,0,0,0,0,0.84,0.84,0,0,0-.15-0.27v0l0,0a0.83,0.83,0,0,0-.21-0.16l-0.08,0a0.84,0.84,0,0,0-.32-0.07H72.69a0.82,0.82,0,0,0-.27,0l-0.08,0-0.16.09-0.07.06-0.11.13-0.05.08,0,0a0.81,0.81,0,0,0,0,.14s0,0,0,.06l-4.23,23.68a0.47,0.47,0,0,0,0,0,0.85,0.85,0,0,0,0,.27,0.15,0.15,0,0,0,0,.06,0.05,0.05,0,0,0,0,0,0.84,0.84,0,0,0,.15.27v0l0,0a0.82,0.82,0,0,0,.21.16l0.08,0a0.84,0.84,0,0,0,.32.07h37.21a0.84,0.84,0,0,0,.28,0l0.08,0,0.16-.09,0.08-.07,0.11-.13,0.06-.1s0,0,0-.07l0-.08,0-.06,4.23-23.68a0.47,0.47,0,0,0,0,0A0.83,0.83,0,0,0,110.72,5821Zm-3.49,1-20,14.1-12.61-14.1h32.65Zm-34,1,9.54,10.66L69.66,5843Zm-2.1,21,12.77-9,2.55,2.85a0.85,0.85,0,0,0,1.12.13l4.74-3.34,11.07,9.41H71.12Zm34-.75-11.37-9.67,15-10.54Z" transform="translate(-61.7 -5820.36)"/><path class="cls-1" d="M62.54,5822.9h6.77a0.85,0.85,0,0,0,0-1.69H62.54A0.85,0.85,0,0,0,62.54,5822.9Z" transform="translate(-61.7 -5820.36)"/><path class="cls-1" d="M68.46,5827.13a0.85,0.85,0,0,0-.85-0.85H62.54a0.85,0.85,0,0,0,0,1.69h5.07A0.85,0.85,0,0,0,68.46,5827.13Z" transform="translate(-61.7 -5820.36)"/><path class="cls-1" d="M65.93,5831.36H62.54a0.85,0.85,0,0,0,0,1.69h3.38A0.85,0.85,0,0,0,65.93,5831.36Z" transform="translate(-61.7 -5820.36)"/><path class="cls-1" d="M64.24,5836.43H62.54a0.85,0.85,0,1,0,0,1.69h1.69A0.85,0.85,0,1,0,64.24,5836.43Z" transform="translate(-61.7 -5820.36)"/><path class="cls-1" d="M123.48,5826.09h-5.29l0.62-3.47H133l-0.62,3.47h-5.29l-2.83,16.13h-3.58Z" transform="translate(-61.7 -5820.36)"/><path class="cls-1" d="M135.94,5822.62h3.58l-1.34,7.64h8.6l1.34-7.64h3.58l-3.44,19.6h-3.58l1.48-8.48h-8.6l-1.48,8.48h-3.58Z" transform="translate(-61.7 -5820.36)"/><path class="cls-1" d="M155.26,5841a6.39,6.39,0,0,1-1.62-4.68,13.74,13.74,0,0,1,.22-2.46l2-11.2h3.56l-1.76,10a15.84,15.84,0,0,0-.28,2.74,4.68,4.68,0,0,0,.78,2.83,3,3,0,0,0,2.55,1,4.11,4.11,0,0,0,3.63-1.72,12.4,12.4,0,0,0,1.75-4.83l1.76-10h3.58l-2,11.2a11.65,11.65,0,0,1-3.09,6.45,8.48,8.48,0,0,1-6.23,2.34A6.5,6.5,0,0,1,155.26,5841Z" transform="translate(-61.7 -5820.36)"/><path class="cls-1" d="M175.5,5822.62H179l5.6,12.66,2.24-12.66h3.58l-3.47,19.6H184l-6-13.44-2.38,13.44h-3.58Z" transform="translate(-61.7 -5820.36)"/><path class="cls-1" d="M194.77,5822.62h7.06a7.58,7.58,0,0,1,5.67,2.13,8.28,8.28,0,0,1,2.09,6,11.63,11.63,0,0,1-1.5,5.91,10.73,10.73,0,0,1-4.06,4.06,11.22,11.22,0,0,1-5.64,1.46h-7.06Zm4.23,16.16a6.23,6.23,0,0,0,3.6-1,6.41,6.41,0,0,0,2.27-2.76,9.43,9.43,0,0,0,.77-3.86,5.66,5.66,0,0,0-1.11-3.78,4.1,4.1,0,0,0-3.29-1.29h-3.47l-2.24,12.71H199Z" transform="translate(-61.7 -5820.36)"/><path class="cls-1" d="M214.42,5822.62h12.15l-0.62,3.47H217.5l-0.73,4.17h6.52l-0.62,3.47h-6.52l-0.9,5H224l-0.62,3.47H211Z" transform="translate(-61.7 -5820.36)"/><path class="cls-1" d="M230,5822.62h6.47a7.42,7.42,0,0,1,4.54,1.22,4.43,4.43,0,0,1,1.62,3.79q0,4-4.31,6.36l2.8,8.23h-3.72l-2.58-7.28h-3.42l-1.29,7.28h-3.56Zm4.79,9a4.27,4.27,0,0,0,2.87-1,3.29,3.29,0,0,0,1.13-2.65q0-2.35-2.69-2.35H233l-1.06,6h2.8Z" transform="translate(-61.7 -5820.36)"/><path class="cls-1" d="M247.12,5822.62h5.82a7.87,7.87,0,0,1,4.28,1,3.75,3.75,0,0,1,1.57,3.42,5.46,5.46,0,0,1-2.69,4.79,4.19,4.19,0,0,1,2.11,1.46,4,4,0,0,1,.71,2.44,5.9,5.9,0,0,1-1,3.49,6.57,6.57,0,0,1-2.77,2.24,9.28,9.28,0,0,1-3.81.77h-7.64Zm4.06,16.55a4.12,4.12,0,0,0,2.72-.88,3,3,0,0,0,1.06-2.48,2.39,2.39,0,0,0-.7-1.85,3,3,0,0,0-2.07-.64h-3.36l-1,5.85h3.39Zm1.12-8.68a2.74,2.74,0,0,0,2-.78,2.85,2.85,0,0,0,.8-2.13,1.92,1.92,0,0,0-.48-1.46,2.06,2.06,0,0,0-1.46-.45h-3l-0.84,4.82h3Z" transform="translate(-61.7 -5820.36)"/><path class="cls-1" d="M264.37,5822.62H268l-3.44,19.6h-3.58Z" transform="translate(-61.7 -5820.36)"/><path class="cls-1" d="M272.3,5822.62h6.47a7.42,7.42,0,0,1,4.54,1.22,4.43,4.43,0,0,1,1.62,3.79q0,4-4.31,6.36l2.8,8.23h-3.72l-2.58-7.28H273.7l-1.29,7.28h-3.56Zm4.79,9a4.27,4.27,0,0,0,2.87-1,3.29,3.29,0,0,0,1.13-2.65q0-2.35-2.69-2.35h-3.05l-1.06,6h2.8Z" transform="translate(-61.7 -5820.36)"/><path class="cls-1" d="M289.46,5822.62h7.06a7.58,7.58,0,0,1,5.67,2.13,8.28,8.28,0,0,1,2.09,6,11.63,11.63,0,0,1-1.5,5.91,10.73,10.73,0,0,1-4.06,4.06,11.22,11.22,0,0,1-5.64,1.46H286Zm4.23,16.16a6.23,6.23,0,0,0,3.6-1,6.41,6.41,0,0,0,2.27-2.76,9.43,9.43,0,0,0,.77-3.86,5.66,5.66,0,0,0-1.11-3.78,4.1,4.1,0,0,0-3.29-1.29h-3.47l-2.24,12.71h3.47Z" transform="translate(-61.7 -5820.36)"/></svg>