<svg id="Capa_1" data-name="Capa 1" xmlns="http://www.w3.org/2000/svg" viewBox="0 0 147.18 25.37"><defs><style>.cls-1{fill:#595959;}</style></defs><title>titulo yahoo</title><path class="cls-1" d="M110.72,6902v-0.07a0.21,0.21,0,0,0,0,0,0.84,0.84,0,0,0-.15-0.27v0l0,0a0.83,0.83,0,0,0-.21-0.16l-0.08,0a0.84,0.84,0,0,0-.32-0.07H72.69a0.82,0.82,0,0,0-.27,0l-0.08,0-0.16.09-0.07.06-0.11.13-0.05.08,0,0a0.81,0.81,0,0,0,0,.14s0,0,0,.06l-4.23,23.68a0.47,0.47,0,0,0,0,0,0.85,0.85,0,0,0,0,.27,0.15,0.15,0,0,0,0,.06,0.07,0.07,0,0,0,0,0,0.84,0.84,0,0,0,.15.27v0l0,0a0.82,0.82,0,0,0,.21.16l0.08,0a0.84,0.84,0,0,0,.32.07h37.21a0.84,0.84,0,0,0,.28,0l0.08,0,0.16-.09,0.08-.07,0.11-.13,0.06-.1s0,0,0-.07l0-.08,0-.06,4.23-23.68a0.47,0.47,0,0,0,0,0A0.83,0.83,0,0,0,110.72,6902Zm-3.49,1-20,14.1L74.58,6903h32.65Zm-34,1,9.54,10.66L69.66,6924Zm-2.1,21,12.77-9,2.55,2.85a0.85,0.85,0,0,0,1.12.13l4.74-3.34,11.07,9.41H71.12Zm34-.75-11.37-9.67,15-10.54Z" transform="translate(-61.7 -6901.34)"/><path class="cls-1" d="M62.54,6903.88h6.77a0.85,0.85,0,1,0,0-1.69H62.54A0.85,0.85,0,1,0,62.54,6903.88Z" transform="translate(-61.7 -6901.34)"/><path class="cls-1" d="M68.46,6908.1a0.85,0.85,0,0,0-.85-0.85H62.54a0.85,0.85,0,1,0,0,1.69h5.07A0.85,0.85,0,0,0,68.46,6908.1Z" transform="translate(-61.7 -6901.34)"/><path class="cls-1" d="M65.93,6912.33H62.54a0.85,0.85,0,0,0,0,1.69h3.38A0.85,0.85,0,0,0,65.93,6912.33Z" transform="translate(-61.7 -6901.34)"/><path class="cls-1" d="M64.24,6917.41H62.54a0.85,0.85,0,1,0,0,1.69h1.69A0.85,0.85,0,1,0,64.24,6917.41Z" transform="translate(-61.7 -6901.34)"/><path class="cls-1" d="M122.61,6914.51L118,6903.59h3.81l3.19,7.84,5.82-7.84h3.81l-8.46,10.92-1.54,8.68H121.1Z" transform="translate(-61.7 -6901.34)"/><path class="cls-1" d="M139.77,6903.59h3.36l3.22,19.6h-3.72l-0.76-4.73h-6.1l-2.41,4.73h-3.72Zm1.48,11.4-0.81-5.74-2.83,5.74h3.64Z" transform="translate(-61.7 -6901.34)"/><path class="cls-1" d="M152,6903.59h3.58l-1.34,7.64h8.6l1.34-7.64h3.58l-3.44,19.6h-3.58l1.48-8.48h-8.6l-1.48,8.48h-3.58Z" transform="translate(-61.7 -6901.34)"/><path class="cls-1" d="M172.79,6922.57a6.72,6.72,0,0,1-2.72-2.91,10,10,0,0,1-1-4.51,12.26,12.26,0,0,1,1.53-6.09,11.53,11.53,0,0,1,4.09-4.3,10.45,10.45,0,0,1,5.56-1.57,8.21,8.21,0,0,1,4.14,1,6.73,6.73,0,0,1,2.72,2.91,10,10,0,0,1,1,4.51,12.27,12.27,0,0,1-1.53,6.09,11.53,11.53,0,0,1-4.09,4.3,10.45,10.45,0,0,1-5.56,1.57A8.21,8.21,0,0,1,172.79,6922.57ZM181,6919a7.19,7.19,0,0,0,2.31-3,10.26,10.26,0,0,0,.8-4.06A6.12,6.12,0,0,0,183,6908a4,4,0,0,0-3.32-1.39,5.72,5.72,0,0,0-3.53,1.13,7.2,7.2,0,0,0-2.31,3,10.26,10.26,0,0,0-.8,4.06,6.12,6.12,0,0,0,1.11,3.91,4,4,0,0,0,3.32,1.39A5.72,5.72,0,0,0,181,6919Z" transform="translate(-61.7 -6901.34)"/><path class="cls-1" d="M193.56,6922.57a6.72,6.72,0,0,1-2.72-2.91,10,10,0,0,1-1-4.51,12.26,12.26,0,0,1,1.53-6.09,11.53,11.53,0,0,1,4.09-4.3,10.45,10.45,0,0,1,5.56-1.57,8.21,8.21,0,0,1,4.14,1,6.73,6.73,0,0,1,2.72,2.91,10,10,0,0,1,1,4.51,12.27,12.27,0,0,1-1.53,6.09,11.53,11.53,0,0,1-4.09,4.3,10.45,10.45,0,0,1-5.56,1.57A8.21,8.21,0,0,1,193.56,6922.57Zm8.23-3.57a7.19,7.19,0,0,0,2.31-3,10.26,10.26,0,0,0,.8-4.06,6.12,6.12,0,0,0-1.11-3.91,4,4,0,0,0-3.32-1.39,5.72,5.72,0,0,0-3.53,1.13,7.2,7.2,0,0,0-2.31,3,10.26,10.26,0,0,0-.8,4.06,6.12,6.12,0,0,0,1.11,3.91,4,4,0,0,0,3.32,1.39A5.72,5.72,0,0,0,201.79,6919Z" transform="translate(-61.7 -6901.34)"/></svg>