<svg id="Capa_1" data-name="Capa 1" xmlns="http://www.w3.org/2000/svg" viewBox="0 0 430.45 25.37"><defs><style>.cls-1{fill:#595959;}</style></defs><title>titulo outlook</title><path class="cls-1" d="M114.13,4129.63v-0.07a0.21,0.21,0,0,0,0,0,0.84,0.84,0,0,0-.15-0.27v0l0,0a0.83,0.83,0,0,0-.21-0.16l-0.08,0a0.84,0.84,0,0,0-.32-0.07H76.1a0.82,0.82,0,0,0-.27,0l-0.08,0-0.16.09-0.07.06-0.11.13-0.05.08,0,0a0.81,0.81,0,0,0,0,.14s0,0,0,.06L71,4153.34a0.47,0.47,0,0,0,0,0,0.85,0.85,0,0,0,0,.27,0.15,0.15,0,0,0,0,.06,0.05,0.05,0,0,0,0,0,0.84,0.84,0,0,0,.15.27v0l0,0a0.82,0.82,0,0,0,.21.16l0.08,0a0.84,0.84,0,0,0,.32.07h37.21a0.84,0.84,0,0,0,.28,0l0.08,0,0.16-.09,0.08-.07,0.11-.13,0.06-.1s0,0,0-.07l0-.08,0-.06,4.23-23.68a0.47,0.47,0,0,0,0,0A0.83,0.83,0,0,0,114.13,4129.63Zm-3.49,1-20,14.1L78,4130.65h32.65Zm-34,1,9.54,10.66-13.1,9.28Zm-2.1,21,12.77-9,2.55,2.85a0.85,0.85,0,0,0,1.12.13l4.74-3.34,11.07,9.41H74.53Zm34-.75-11.37-9.67,15-10.54Z" transform="translate(-65.11 -4128.96)"/><path class="cls-1" d="M66,4131.49h6.77a0.85,0.85,0,1,0,0-1.69H66A0.85,0.85,0,1,0,66,4131.49Z" transform="translate(-65.11 -4128.96)"/><path class="cls-1" d="M71.87,4135.72a0.85,0.85,0,0,0-.85-0.85H66a0.85,0.85,0,1,0,0,1.69H71A0.85,0.85,0,0,0,71.87,4135.72Z" transform="translate(-65.11 -4128.96)"/><path class="cls-1" d="M69.34,4140H66a0.85,0.85,0,1,0,0,1.69h3.38A0.85,0.85,0,1,0,69.34,4140Z" transform="translate(-65.11 -4128.96)"/><path class="cls-1" d="M67.64,4145H66a0.85,0.85,0,0,0,0,1.69h1.69A0.85,0.85,0,0,0,67.64,4145Z" transform="translate(-65.11 -4128.96)"/><path class="cls-1" d="M124.23,4150.19a6.72,6.72,0,0,1-2.72-2.91,10,10,0,0,1-1-4.51,12.27,12.27,0,0,1,1.53-6.09,11.54,11.54,0,0,1,4.09-4.3,10.46,10.46,0,0,1,5.56-1.57,8.21,8.21,0,0,1,4.14,1,6.73,6.73,0,0,1,2.72,2.91,10,10,0,0,1,1,4.51,12.27,12.27,0,0,1-1.53,6.09,11.53,11.53,0,0,1-4.09,4.3,10.45,10.45,0,0,1-5.56,1.57A8.2,8.2,0,0,1,124.23,4150.19Zm8.23-3.57a7.2,7.2,0,0,0,2.31-3,10.27,10.27,0,0,0,.8-4.06,6.12,6.12,0,0,0-1.11-3.91,4,4,0,0,0-3.32-1.39,5.72,5.72,0,0,0-3.53,1.13,7.2,7.2,0,0,0-2.31,3,10.26,10.26,0,0,0-.8,4.06,6.12,6.12,0,0,0,1.11,3.91,4,4,0,0,0,3.32,1.39A5.72,5.72,0,0,0,132.46,4146.62Z" transform="translate(-65.11 -4128.96)"/><path class="cls-1" d="M143.55,4149.55a6.39,6.39,0,0,1-1.62-4.68,13.74,13.74,0,0,1,.22-2.46l2-11.2h3.56l-1.76,10a15.84,15.84,0,0,0-.28,2.74,4.67,4.67,0,0,0,.78,2.83,3,3,0,0,0,2.55,1,4.11,4.11,0,0,0,3.63-1.72,12.4,12.4,0,0,0,1.75-4.83l1.76-10h3.58l-2,11.2a11.65,11.65,0,0,1-3.09,6.45,8.48,8.48,0,0,1-6.23,2.34A6.5,6.5,0,0,1,143.55,4149.55Z" transform="translate(-65.11 -4128.96)"/><path class="cls-1" d="M167.12,4134.68h-5.29l0.62-3.47h14.17l-0.62,3.47h-5.29l-2.83,16.13h-3.58Z" transform="translate(-65.11 -4128.96)"/><path class="cls-1" d="M179.58,4131.21h3.58l-2.83,16.13h7.59l-0.62,3.47H176.14Z" transform="translate(-65.11 -4128.96)"/><path class="cls-1" d="M193.39,4150.19a6.72,6.72,0,0,1-2.72-2.91,10,10,0,0,1-1-4.51,12.27,12.27,0,0,1,1.53-6.09,11.54,11.54,0,0,1,4.09-4.3,10.46,10.46,0,0,1,5.56-1.57,8.21,8.21,0,0,1,4.14,1,6.73,6.73,0,0,1,2.72,2.91,10,10,0,0,1,1,4.51,12.27,12.27,0,0,1-1.53,6.09,11.53,11.53,0,0,1-4.09,4.3,10.45,10.45,0,0,1-5.56,1.57A8.2,8.2,0,0,1,193.39,4150.19Zm8.23-3.57a7.2,7.2,0,0,0,2.31-3,10.27,10.27,0,0,0,.8-4.06,6.12,6.12,0,0,0-1.11-3.91,4,4,0,0,0-3.32-1.39,5.72,5.72,0,0,0-3.53,1.13,7.2,7.2,0,0,0-2.31,3,10.26,10.26,0,0,0-.8,4.06,6.12,6.12,0,0,0,1.11,3.91,4,4,0,0,0,3.32,1.39A5.72,5.72,0,0,0,201.62,4146.62Z" transform="translate(-65.11 -4128.96)"/><path class="cls-1" d="M214.16,4150.19a6.72,6.72,0,0,1-2.72-2.91,10,10,0,0,1-1-4.51,12.27,12.27,0,0,1,1.53-6.09,11.54,11.54,0,0,1,4.09-4.3,10.46,10.46,0,0,1,5.56-1.57,8.21,8.21,0,0,1,4.14,1,6.73,6.73,0,0,1,2.72,2.91,10,10,0,0,1,1,4.51,12.27,12.27,0,0,1-1.53,6.09,11.53,11.53,0,0,1-4.09,4.3,10.45,10.45,0,0,1-5.56,1.57A8.2,8.2,0,0,1,214.16,4150.19Zm8.23-3.57a7.2,7.2,0,0,0,2.31-3,10.27,10.27,0,0,0,.8-4.06,6.12,6.12,0,0,0-1.11-3.91,4,4,0,0,0-3.32-1.39,5.72,5.72,0,0,0-3.53,1.13,7.2,7.2,0,0,0-2.31,3,10.26,10.26,0,0,0-.8,4.06,6.12,6.12,0,0,0,1.11,3.91,4,4,0,0,0,3.32,1.39A5.72,5.72,0,0,0,222.39,4146.62Z" transform="translate(-65.11 -4128.96)"/><path class="cls-1" d="M234.27,4131.21h3.58l-3.44,19.6h-3.58Zm2.21,9.24,7.92-9.24h4.34l-8.4,9.24,4.9,10.36h-3.89Z" transform="translate(-65.11 -4128.96)"/><path class="cls-1" d="M255.55,4131.21h3.72l1.23,13.92,6.58-13.92h2.41l1.88,13.55,5.91-13.55H281l-9,19.6H269l-1.85-13.08-6.41,13.08h-3.3Z" transform="translate(-65.11 -4128.96)"/><path class="cls-1" d="M283.43,4131.21h12.15l-0.62,3.47h-8.46l-0.73,4.17h6.52l-0.62,3.47h-6.52l-0.9,5H293l-0.62,3.47H280Z" transform="translate(-65.11 -4128.96)"/><path class="cls-1" d="M299,4131.21h5.82a7.87,7.87,0,0,1,4.28,1,3.75,3.75,0,0,1,1.57,3.42,5.46,5.46,0,0,1-2.69,4.79,4.19,4.19,0,0,1,2.11,1.46,4,4,0,0,1,.71,2.44,5.9,5.9,0,0,1-1,3.49A6.57,6.57,0,0,1,307,4150a9.28,9.28,0,0,1-3.81.77h-7.64Zm4.06,16.55a4.12,4.12,0,0,0,2.72-.88,3,3,0,0,0,1.06-2.48,2.39,2.39,0,0,0-.7-1.85,3,3,0,0,0-2.07-.64h-3.36l-1,5.85H303Zm1.12-8.68a2.74,2.74,0,0,0,2-.78,2.85,2.85,0,0,0,.8-2.13,1.92,1.92,0,0,0-.48-1.46,2.06,2.06,0,0,0-1.46-.45h-3l-0.84,4.82h3Z" transform="translate(-65.11 -4128.96)"/><path class="cls-1" d="M324.73,4142.13l-4.59-10.92h3.81l3.19,7.84,5.82-7.84h3.81l-8.46,10.92-1.54,8.68h-3.56Z" transform="translate(-65.11 -4128.96)"/><path class="cls-1" d="M345.2,4131.21h12.15l-0.62,3.47h-8.46l-0.73,4.17h6.52l-0.62,3.47h-6.52l-0.9,5h8.74l-0.62,3.47h-12.4Z" transform="translate(-65.11 -4128.96)"/><path class="cls-1" d="M356.71,4149.77l1.12-4.09a8.56,8.56,0,0,0,2.42,1.48,8.06,8.06,0,0,0,3.12.59q3.61,0,3.61-2.38a2.25,2.25,0,0,0-.83-1.86,10.6,10.6,0,0,0-2.9-1.39,12.41,12.41,0,0,1-2.58-1.19,4.29,4.29,0,0,1-1.5-1.6,5.08,5.08,0,0,1-.52-2.42,5.49,5.49,0,0,1,.94-3.15,6.27,6.27,0,0,1,2.63-2.17,9.28,9.28,0,0,1,3.93-.78,13.26,13.26,0,0,1,3.53.45,10.4,10.4,0,0,1,2.63,1.06l-1,3.67a14.76,14.76,0,0,0-2.77-1.34,8.18,8.18,0,0,0-2.66-.42,5,5,0,0,0-2.53.56,1.87,1.87,0,0,0-1,1.74,1.68,1.68,0,0,0,.78,1.5,11.65,11.65,0,0,0,2.49,1.11,21.21,21.21,0,0,1,2.83,1.15,5.16,5.16,0,0,1,1.85,1.61,4.56,4.56,0,0,1,.76,2.73,6.66,6.66,0,0,1-.8,3.18,6,6,0,0,1-2.63,2.45,10.23,10.23,0,0,1-4.72,1A13.54,13.54,0,0,1,356.71,4149.77Z" transform="translate(-65.11 -4128.96)"/><path class="cls-1" d="M377.23,4150.19a6.65,6.65,0,0,1-2.7-2.9,10.07,10.07,0,0,1-.94-4.52,12.32,12.32,0,0,1,1.53-6.12,11.34,11.34,0,0,1,4.12-4.28,10.86,10.86,0,0,1,5.7-1.55,12.71,12.71,0,0,1,2.76.31,8.64,8.64,0,0,1,2.34.84l-1,3.42a11.26,11.26,0,0,0-4.56-1.12,6.32,6.32,0,0,0-3.77,1.11,6.88,6.88,0,0,0-2.35,3,10.3,10.3,0,0,0-.8,4.1q0,5.32,4.56,5.32a13.88,13.88,0,0,0,4.93-1.12l-0.2,3.42a11.5,11.5,0,0,1-2.62.84,14.15,14.15,0,0,1-2.84.31A8.2,8.2,0,0,1,377.23,4150.19Z" transform="translate(-65.11 -4128.96)"/><path class="cls-1" d="M393.19,4131.21h6.47a7.43,7.43,0,0,1,4.54,1.22,4.43,4.43,0,0,1,1.62,3.79q0,4-4.31,6.36l2.8,8.23h-3.72l-2.58-7.28h-3.42l-1.29,7.28h-3.56Zm4.79,9a4.27,4.27,0,0,0,2.87-1,3.29,3.29,0,0,0,1.13-2.65q0-2.35-2.69-2.35h-3.05l-1.06,6H398Z" transform="translate(-65.11 -4128.96)"/><path class="cls-1" d="M410.36,4131.21h3.58l-3.44,19.6h-3.58Z" transform="translate(-65.11 -4128.96)"/><path class="cls-1" d="M421.61,4134.68h-5.29l0.62-3.47H431.1l-0.62,3.47h-5.29l-2.83,16.13h-3.58Z" transform="translate(-65.11 -4128.96)"/><path class="cls-1" d="M434.38,4150.19a6.73,6.73,0,0,1-2.72-2.91,10,10,0,0,1-1-4.51,12.27,12.27,0,0,1,1.53-6.09,11.53,11.53,0,0,1,4.09-4.3,10.46,10.46,0,0,1,5.56-1.57,8.21,8.21,0,0,1,4.14,1,6.73,6.73,0,0,1,2.72,2.91,10,10,0,0,1,1,4.51,12.27,12.27,0,0,1-1.53,6.09,11.53,11.53,0,0,1-4.09,4.3,10.45,10.45,0,0,1-5.56,1.57A8.2,8.2,0,0,1,434.38,4150.19Zm8.23-3.57a7.2,7.2,0,0,0,2.31-3,10.26,10.26,0,0,0,.8-4.06,6.12,6.12,0,0,0-1.11-3.91,4,4,0,0,0-3.32-1.39,5.72,5.72,0,0,0-3.53,1.13,7.19,7.19,0,0,0-2.31,3,10.25,10.25,0,0,0-.8,4.06,6.11,6.11,0,0,0,1.11,3.91,4,4,0,0,0,3.32,1.39A5.72,5.72,0,0,0,442.61,4146.62Z" transform="translate(-65.11 -4128.96)"/><path class="cls-1" d="M454.48,4131.21H461a7.43,7.43,0,0,1,4.54,1.22,4.43,4.43,0,0,1,1.62,3.79q0,4-4.31,6.36l2.8,8.23h-3.72l-2.58-7.28h-3.42l-1.29,7.28H451Zm4.79,9a4.27,4.27,0,0,0,2.87-1,3.29,3.29,0,0,0,1.13-2.65q0-2.35-2.69-2.35h-3.05l-1.06,6h2.8Z" transform="translate(-65.11 -4128.96)"/><path class="cls-1" d="M471.65,4131.21h3.58l-3.44,19.6H468.2Z" transform="translate(-65.11 -4128.96)"/><path class="cls-1" d="M480.24,4150.19a6.73,6.73,0,0,1-2.72-2.91,10,10,0,0,1-1-4.51,12.27,12.27,0,0,1,1.53-6.09,11.53,11.53,0,0,1,4.09-4.3,10.46,10.46,0,0,1,5.56-1.57,8.21,8.21,0,0,1,4.14,1,6.73,6.73,0,0,1,2.72,2.91,10,10,0,0,1,1,4.51,12.27,12.27,0,0,1-1.53,6.09,11.53,11.53,0,0,1-4.09,4.3,10.45,10.45,0,0,1-5.56,1.57A8.2,8.2,0,0,1,480.24,4150.19Zm8.23-3.57a7.2,7.2,0,0,0,2.31-3,10.26,10.26,0,0,0,.8-4.06,6.12,6.12,0,0,0-1.11-3.91,4,4,0,0,0-3.32-1.39,5.72,5.72,0,0,0-3.53,1.13,7.19,7.19,0,0,0-2.31,3,10.25,10.25,0,0,0-.8,4.06,6.11,6.11,0,0,0,1.11,3.91,4,4,0,0,0,3.32,1.39A5.72,5.72,0,0,0,488.47,4146.62Z" transform="translate(-65.11 -4128.96)"/></svg>