<svg id="Capa_1" data-name="Capa 1" xmlns="http://www.w3.org/2000/svg" viewBox="0 0 178.51 25.37"><defs><style>.cls-1{fill:#595959;}</style></defs><title>titulo mac</title><path class="cls-1" d="M110.72,2744.2v-0.07a0.21,0.21,0,0,0,0,0,0.84,0.84,0,0,0-.15-0.27v0l0,0a0.83,0.83,0,0,0-.21-0.16l-0.08,0a0.84,0.84,0,0,0-.32-0.07H72.69a0.82,0.82,0,0,0-.27,0l-0.08,0-0.16.09-0.07.06-0.11.13-0.05.08,0,0a0.81,0.81,0,0,0,0,.14s0,0,0,.06l-4.23,23.68a0.47,0.47,0,0,0,0,0,0.85,0.85,0,0,0,0,.27,0.15,0.15,0,0,0,0,.06,0.05,0.05,0,0,0,0,0,0.84,0.84,0,0,0,.15.27v0l0,0a0.82,0.82,0,0,0,.21.16l0.08,0a0.84,0.84,0,0,0,.32.07h37.21a0.84,0.84,0,0,0,.28,0l0.08,0,0.16-.09,0.08-.07,0.11-.13,0.06-.1s0,0,0-.07l0-.08,0-.06,4.23-23.68a0.47,0.47,0,0,0,0,0A0.83,0.83,0,0,0,110.72,2744.2Zm-3.49,1-20,14.1-12.61-14.1h32.65Zm-34,1,9.54,10.66-13.1,9.28Zm-2.1,21,12.77-9,2.55,2.85a0.85,0.85,0,0,0,1.12.13l4.74-3.34,11.07,9.41H71.12Zm34-.75-11.37-9.67,15-10.54Z" transform="translate(-61.7 -2743.53)"/><path class="cls-1" d="M62.54,2746.06h6.77a0.85,0.85,0,0,0,0-1.69H62.54A0.85,0.85,0,0,0,62.54,2746.06Z" transform="translate(-61.7 -2743.53)"/><path class="cls-1" d="M68.46,2750.29a0.85,0.85,0,0,0-.85-0.85H62.54a0.85,0.85,0,0,0,0,1.69h5.07A0.85,0.85,0,0,0,68.46,2750.29Z" transform="translate(-61.7 -2743.53)"/><path class="cls-1" d="M65.93,2754.52H62.54a0.85,0.85,0,0,0,0,1.69h3.38A0.85,0.85,0,0,0,65.93,2754.52Z" transform="translate(-61.7 -2743.53)"/><path class="cls-1" d="M64.24,2759.6H62.54a0.85,0.85,0,1,0,0,1.69h1.69A0.85,0.85,0,1,0,64.24,2759.6Z" transform="translate(-61.7 -2743.53)"/><path class="cls-1" d="M121.83,2745.78h3.11l2.77,8.93,5.94-8.93h3.08l-0.81,19.6h-3.72l0.78-13-6.41,8.9-3.22-8.9-3.86,13h-3.72Z" transform="translate(-61.7 -2743.53)"/><path class="cls-1" d="M147.56,2745.78h3.36l3.22,19.6h-3.72l-0.76-4.73h-6.1l-2.41,4.73h-3.72Zm1.48,11.4-0.81-5.74-2.83,5.74H149Z" transform="translate(-61.7 -2743.53)"/><path class="cls-1" d="M159.79,2745.78h3.58l-3.44,19.6h-3.58Z" transform="translate(-61.7 -2743.53)"/><path class="cls-1" d="M167.72,2745.78h3.58l-2.83,16.13h7.59l-0.62,3.47H164.27Z" transform="translate(-61.7 -2743.53)"/><path class="cls-1" d="M189.17,2745.78h3.11l2.77,8.93,5.94-8.93h3.08l-0.81,19.6h-3.72l0.78-13-6.41,8.9-3.22-8.9-3.86,13h-3.72Z" transform="translate(-61.7 -2743.53)"/><path class="cls-1" d="M214.9,2745.78h3.36l3.22,19.6h-3.72l-0.76-4.73h-6.1l-2.41,4.73h-3.72Zm1.48,11.4-0.81-5.74-2.83,5.74h3.64Z" transform="translate(-61.7 -2743.53)"/><path class="cls-1" d="M227.41,2764.76a6.66,6.66,0,0,1-2.7-2.9,10.07,10.07,0,0,1-.94-4.52,12.32,12.32,0,0,1,1.53-6.12,11.35,11.35,0,0,1,4.12-4.28,10.87,10.87,0,0,1,5.7-1.55,12.7,12.7,0,0,1,2.76.31,8.7,8.7,0,0,1,2.34.84l-1,3.42a11.26,11.26,0,0,0-4.56-1.12,6.33,6.33,0,0,0-3.77,1.11,6.88,6.88,0,0,0-2.35,3,10.32,10.32,0,0,0-.8,4.1q0,5.32,4.56,5.32a13.9,13.9,0,0,0,4.93-1.12l-0.2,3.42a11.5,11.5,0,0,1-2.62.84,14.14,14.14,0,0,1-2.84.31A8.21,8.21,0,0,1,227.41,2764.76Z" transform="translate(-61.7 -2743.53)"/></svg>