<svg xmlns="http://www.w3.org/2000/svg" width="39.6" height="20.916" viewBox="0 0 39.6 20.916"><g transform="translate(-534.744 -117.148)"><g transform="translate(-38.295 87.196)"><path d="M587.362,48.31a7.661,7.661,0,1,1-7.664-7.66A7.663,7.663,0,0,1,587.362,48.31Z" transform="translate(1 -5.104)" fill="#fbbe00"/><path d="M614.581,35.453a5.5,5.5,0,1,1-5.5-5.5A5.5,5.5,0,0,1,614.581,35.453Z" transform="translate(-12.102 0)" fill="#fbbe00"/><path d="M636.661,53.277a3.611,3.611,0,1,1-3.612-3.61A3.611,3.611,0,0,1,636.661,53.277Z" transform="translate(-24.022 -10.564)" fill="#fbbe00"/></g></g></svg>