<svg xmlns="http://www.w3.org/2000/svg" width="41.841" height="28.821" viewBox="0 0 41.841 28.821"><g transform="translate(-541.079 -220.761)"><g transform="translate(541.079 220.761)"><path d="M551.252,249.582a10.146,10.146,0,0,1-1.144-20.231,12.421,12.421,0,0,1,24.236,3.8,12.829,12.829,0,0,1-.124,1.668,7.1,7.1,0,0,1,1.25-.117,7.438,7.438,0,1,1,0,14.877H551.252m-7.6-10.153a7.6,7.6,0,0,0,7.6,7.577h24.218a4.863,4.863,0,1,0,0-9.727,4.8,4.8,0,0,0-2.009.434,12.5,12.5,0,0,1-2.094,3.493l-1.96-1.678a9.831,9.831,0,1,0-16.582-10.111,12.141,12.141,0,0,1,3.287,1.1l4.484,2.256-1.169,2.291-4.453-2.242a8.406,8.406,0,0,0-3.722-.97,7.6,7.6,0,0,0-7.6,7.577" transform="translate(-541.079 -220.761)" fill="#fbbe00"/></g></g></svg>