<?xml version="1.0" encoding="utf-8"?>
<!-- Generator: Adobe Illustrator 16.0.3, SVG Export Plug-In . SVG Version: 6.00 Build 0)  -->
<!DOCTYPE svg PUBLIC "-//W3C//DTD SVG 1.1//EN" "http://www.w3.org/Graphics/SVG/1.1/DTD/svg11.dtd">
<svg version="1.1" id="Capa_1" xmlns="http://www.w3.org/2000/svg" xmlns:xlink="http://www.w3.org/1999/xlink" x="0px" y="0px"
	 width="174.75px" height="51px" viewBox="0 0 174.75 51" enable-background="new 0 0 174.75 51" xml:space="preserve">
<g>
	<rect x="98.367" y="19.596" fill="#FFFFFF" width="3.867" height="20.333"/>
	<path fill="#FFFFFF" d="M102.8,14.277c0,1.345-1.088,2.435-2.433,2.435c-1.344,0-2.434-1.089-2.434-2.432
		c0-1.345,1.088-2.433,2.432-2.433C101.71,11.848,102.799,12.936,102.8,14.277"/>
	<path fill="#FFFFFF" d="M137.838,40.342c-5.338,0.001-9.682-4.34-9.684-9.676c0-5.336,4.34-9.677,9.68-9.68
		c5.338,0,9.682,4.339,9.682,9.678C147.518,35.998,143.176,40.34,137.838,40.342 M137.834,24.762
		c-3.256,0.002-5.904,2.65-5.902,5.904c0,3.255,2.65,5.901,5.906,5.899c3.254,0,5.902-2.647,5.902-5.901
		C143.74,27.409,141.09,24.76,137.834,24.762"/>
	<path fill="#FFFFFF" d="M90.846,36.158c-0.974,0-1.764-0.793-1.764-1.765v-1.69v-0.231L89.077,11.77H85.3l0.006,20.704v0.229v1.69
		c0,3.055,2.484,5.537,5.54,5.537h2.01l-0.002-3.774L90.846,36.158z"/>
	<path fill="#FFFFFF" d="M71.064,21.003c-2.222,0-4.269,0.763-5.903,2.026l-0.003-11.256l-3.775,0.002l0.004,18.907
		c0.001,5.336,4.345,9.676,9.682,9.674c5.339,0,9.679-4.344,9.678-9.68C80.747,25.342,76.403,21,71.064,21.003 M71.067,36.583
		c-3.254,0-5.905-2.648-5.905-5.9c-0.001-3.258,2.648-5.905,5.903-5.905c3.257,0,5.906,2.646,5.907,5.901
		C76.973,33.933,74.326,36.581,71.067,36.583"/>
	<path fill="#FFFFFF" d="M155.602,39.915l-0.002-9.979c0-2.631,2.137-4.771,4.77-4.771c2.629-0.001,4.771,2.139,4.771,4.77
		l0.002,9.979h3.775l-0.002-9.98c0-4.712-3.836-8.542-8.549-8.542c-4.711,0.002-8.543,3.836-8.543,8.546l0.002,9.98L155.602,39.915z
		"/>
	<polygon fill="#FFFFFF" points="125.971,39.924 116.668,30.628 125.887,21.411 120.545,21.411 112.893,29.067 112.887,11.762 
		109.111,11.764 109.118,39.927 112.895,39.927 112.893,32.188 120.632,39.924 	"/>
	<path fill="#FFFFFF" d="M172.721,17.521c0.287,0.119,0.535,0.287,0.744,0.498c0.211,0.211,0.375,0.461,0.498,0.746
		c0.119,0.287,0.18,0.592,0.18,0.92c0,0.332-0.061,0.639-0.18,0.924c-0.121,0.283-0.285,0.531-0.496,0.74
		c-0.209,0.211-0.459,0.375-0.744,0.494s-0.594,0.178-0.928,0.178c-0.33,0-0.639-0.06-0.924-0.178
		c-0.287-0.119-0.535-0.283-0.744-0.494c-0.211-0.209-0.375-0.459-0.496-0.74c-0.117-0.283-0.178-0.592-0.178-0.924
		c0-0.326,0.061-0.633,0.178-0.92c0.119-0.283,0.285-0.533,0.496-0.746c0.207-0.211,0.457-0.377,0.744-0.498
		c0.283-0.121,0.594-0.18,0.924-0.18C172.129,17.342,172.438,17.402,172.721,17.521 M171.006,17.835
		c-0.242,0.104-0.451,0.248-0.629,0.427c-0.176,0.182-0.313,0.394-0.41,0.637c-0.1,0.244-0.148,0.504-0.148,0.787
		s0.049,0.545,0.148,0.789c0.098,0.244,0.234,0.455,0.412,0.635c0.178,0.184,0.385,0.326,0.627,0.43
		c0.242,0.105,0.506,0.156,0.789,0.156s0.545-0.051,0.787-0.156c0.24-0.105,0.449-0.248,0.627-0.43
		c0.176-0.18,0.314-0.392,0.416-0.637c0.102-0.244,0.15-0.505,0.15-0.787c0-0.281-0.051-0.543-0.15-0.787
		c-0.104-0.243-0.242-0.455-0.418-0.637c-0.176-0.181-0.387-0.324-0.627-0.429s-0.504-0.158-0.785-0.158
		C171.508,17.675,171.246,17.729,171.006,17.835 M170.945,21.041v-2.708h1.039c0.307,0,0.531,0.063,0.672,0.19
		c0.141,0.129,0.211,0.315,0.211,0.56c0,0.116-0.018,0.22-0.053,0.308s-0.086,0.164-0.148,0.225s-0.135,0.109-0.217,0.145
		c-0.084,0.037-0.17,0.063-0.262,0.079l0.807,1.204h-0.391l-0.764-1.204h-0.563v1.204h-0.332V21.041z M172.021,19.544
		c0.098-0.008,0.186-0.024,0.262-0.054c0.074-0.029,0.135-0.076,0.184-0.143c0.047-0.064,0.068-0.152,0.068-0.267
		c0-0.099-0.02-0.176-0.055-0.235c-0.035-0.057-0.084-0.104-0.145-0.141c-0.063-0.035-0.133-0.061-0.205-0.072
		c-0.074-0.012-0.156-0.021-0.24-0.021h-0.611v0.939h0.443C171.822,19.553,171.922,19.55,172.021,19.544"/>
	<g>
		<path id="SVGID_1_" fill="#FFFFFF" d="M17.982,25.652c-0.001-5.603,3.714-9.836,9.318-9.838c5.603,0,9.319,4.845,9.321,10.445
			l0.002,8.919H28.13C22.527,35.183,17.983,31.253,17.982,25.652 M8.921,33.49l-0.002-7.163l-0.002-7.149v-4.771h3.711h-0.553
			c1.867,0,2.383,3.12,2.383,4.767l0.003,14.314c0.001,1.651-1.116,2.993-2.769,2.993C10.04,36.481,8.921,35.144,8.921,33.49
			 M16.928,1.939C12.272,1.941,9.948,2.537,7.44,3.33C4.706,4.322,2.472,6.775,1.477,9.512c-0.792,2.504-0.87,5.125-0.869,9.779
			L0.61,33.319c0.001,4.654,0.081,6.979,0.873,9.482c0.996,2.735,3.191,4.668,5.927,5.662c2.506,0.791,4.872,0.571,9.527,0.568
			l14.033-0.004c4.654,0,6.981,0.221,9.485-0.572c2.735-0.996,4.483-3.038,5.477-5.773c0.794-2.504,0.386-4.721,0.385-9.373
			L46.315,19.28c-0.001-4.653,0.405-6.978-0.39-9.483c-0.995-2.732-2.947-5.482-5.683-6.475c-2.506-0.79-4.628-1.385-9.283-1.385
			L16.928,1.939z"/>
	</g>
</g>
</svg>
