<svg id="Layer_1" data-name="Layer 1" xmlns="http://www.w3.org/2000/svg" viewBox="0 0 69.32 21.25"><defs><style>.cls-1{fill:#fff;}.cls-2{fill:#e9ac2e;}</style></defs><title>Artboard 46</title><polygon class="cls-1" points="25.06 20.48 28.35 1.17 33.61 1.17 30.32 20.48 25.06 20.48"/><path class="cls-1" d="M49.41,1.64A13.68,13.68,0,0,0,44.69.83c-5.2,0-8.86,2.62-8.9,6.37,0,2.78,2.62,4.33,4.62,5.25s2.73,1.55,2.72,2.39c0,1.3-1.63,1.89-3.15,1.89a11,11,0,0,1-4.95-1l-.68-.31-.74,4.32a16.59,16.59,0,0,0,5.87,1c5.53,0,9.12-2.59,9.16-6.59,0-2.2-1.38-3.87-4.42-5.25-1.84-.89-3-1.49-2.95-2.39s.95-1.66,3-1.66a9.7,9.7,0,0,1,3.94.73l.47.23.72-4.19"/><path class="cls-1" d="M62.9,1.19H58.83a2.6,2.6,0,0,0-2.75,1.6L48.26,20.48h5.53s.9-2.38,1.11-2.9h6.74l.64,2.89h4.88L62.9,1.19M56.41,13.63c.44-1.11,2.1-5.4,2.1-5.4s.43-1.11.7-1.84l.35,1.67s1,4.6,1.22,5.57Z"/><path class="cls-1" d="M20.64,1.18,15.49,14.35l-.55-2.68a15.08,15.08,0,0,0-7.29-8.1l4.72,16.89h5.56L26.22,1.18H20.64"/><path class="cls-2" d="M10.71,1.17H2.23l-.07.4c6.6,1.6,11,5.46,12.78,10.1L13.1,2.8a2.2,2.2,0,0,0-2.39-1.63"/></svg>