<?xml version="1.0" encoding="utf-8"?>
<!-- Generator: Adobe Illustrator 19.2.1, SVG Export Plug-In . SVG Version: 6.00 Build 0)  -->
<svg version="1.1" id="Capa_1" xmlns="http://www.w3.org/2000/svg" xmlns:xlink="http://www.w3.org/1999/xlink" x="0px" y="0px"
	 viewBox="0 0 97 38.4" enable-background="new 0 0 97 38.4" xml:space="preserve">
<g>
	<g>
		<g opacity="0.7">
			<g>
				<defs>
					<rect id="SVGID_19_" x="3.1" y="1.9" width="92.9" height="33.1"/>
				</defs>
				<clipPath id="SVGID_2_">
					<use xlink:href="#SVGID_19_"  overflow="visible"/>
				</clipPath>
				<g clip-path="url(#SVGID_2_)">
					<defs>
						<rect id="SVGID_21_" x="3.1" y="1.9" width="92.9" height="33.1"/>
					</defs>
					<clipPath id="SVGID_4_">
						<use xlink:href="#SVGID_21_"  overflow="visible"/>
					</clipPath>
				</g>
			</g>
		</g>
		<path fill="#212121" d="M74.7,20c0,0.9-0.6,1.6-1.5,1.7c-0.9,0-1.6-0.6-1.7-1.5c0-0.9,0.6-1.6,1.5-1.7
			C73.9,18.5,74.7,19.1,74.7,20 M71.9,20.2c0,0.7,0.6,1.2,1.3,1.2c0.7,0,1.2-0.6,1.1-1.3c0-0.7-0.6-1.2-1.3-1.2
			C72.3,18.9,71.9,19.5,71.9,20.2 M72.9,20.9l-0.4,0l-0.1-1.6c0.1,0,0.3-0.1,0.6-0.1c0.3,0,0.4,0,0.5,0.1c0.1,0.1,0.2,0.2,0.2,0.3
			c0,0.2-0.1,0.3-0.3,0.4l0,0c0.2,0,0.2,0.2,0.3,0.4c0.1,0.2,0.1,0.3,0.1,0.4l-0.4,0c-0.1-0.1-0.1-0.2-0.1-0.4
			c0-0.2-0.1-0.2-0.3-0.2l-0.2,0L72.9,20.9z M72.9,20.1l0.2,0c0.2,0,0.4-0.1,0.3-0.3c0-0.1-0.1-0.2-0.3-0.2c-0.1,0-0.2,0-0.2,0
			L72.9,20.1z"/>
		<path fill="#212121" d="M71.8,13.4c0,0-0.3-0.2-1.2-0.3c-0.3-0.1-0.7-0.1-1-0.1c-1.5-0.1-4-0.2-7.8,0.2c-0.1,0.1-0.7,1.7-0.7,1.7
			l-0.8,2c-0.4,0.9-0.6,1.4-0.7,2h0c-0.1-0.5-0.2-1.1-0.3-2l-0.5-3.6h-2.6l1.6,7.6c0,0.2,0,0.3,0,0.4c-0.3,0.6-0.8,1.1-1.4,1.5
			c-0.5,0.3-1,0.5-1.4,0.7l0.5,2.1c0.5-0.1,1.7-0.5,2.7-1.4c1.1-1,2.1-2.6,3.2-4.8l2.1-4.3c0.3,0,0.6,0,0.9,0
			c-0.9,1.1-1.4,2.5-1.4,3.9c0,1.7,1,2.9,2.5,2.9c1,0,2.1-0.5,2.8-1.8h0c0,0.6-0.1,1.2-0.1,1.7h2.3c0-1,0.1-2.7,0.3-3.8L71.8,13.4z
			 M68.6,16.9c-0.4,2.1-1.3,2.9-2,2.9c-0.7,0-1-0.6-1-1.4c0-1.6,1.2-3.5,2.8-3.5c0.3,0,0.5,0,0.7,0.1L68.6,16.9z"/>
		<path fill="#212121" d="M17.3,21.6c0-0.5,0.1-1.1,0.1-1.7h0c-0.8,1.4-1.9,1.8-2.8,1.8c-1.5,0-2.5-1.2-2.5-2.9c0-2.8,1.9-5.8,6-5.8
			c1,0,2.1,0.2,2.8,0.4l-0.9,4.4c-0.2,1.1-0.4,2.7-0.3,3.8H17.3z M18,15c-0.2,0-0.4-0.1-0.7-0.1c-1.6,0-2.8,2-2.8,3.5
			c0,0.8,0.3,1.4,1,1.4c0.7,0,1.6-0.8,2-2.9L18,15z"/>
		<path fill="#212121" d="M26.6,21.3c-0.5,0.3-1.4,0.4-2.4,0.4c-2.1,0-3.5-1.3-3.5-3.4c0-3,2.3-5.3,5.5-5.3c0.7,0,1.3,0.1,1.7,0.3
			l-0.6,1.9C27,15.1,26.6,15,26.1,15c-1.7,0-2.8,1.5-2.8,3.1c0,1.2,0.7,1.7,1.6,1.7c0.7,0,1.2-0.2,1.7-0.3L26.6,21.3z"/>
		<path fill="#212121" d="M40.1,13.2l-0.7,3.9c-0.3,1.7-1.2,2.7-2,2.7c-0.6,0-0.8-0.4-0.8-1c0-0.3,0.1-0.7,0.1-1.1l0.9-4.5H35
			l-2.9,0l0.4-2.3L30,11.6l-0.3,1.6h-1.1l-0.3,1.9h1.1l-0.6,3.3c-0.1,0.6-0.2,1.1-0.2,1.6c0,1.1,0.7,1.8,2.2,1.8
			c0.5,0,1.1-0.1,1.5-0.2l0.3-1.9c-0.2,0-0.5,0-0.7,0c-0.5,0-0.7-0.3-0.7-0.7c0-0.3,0.1-0.7,0.1-1.1l0.6-2.8h1.8l1.4-1.8l-0.8,4.6
			C34,18.5,34,19,34,19.4c0,1.6,0.8,2.3,2.2,2.3c1,0,2-0.5,2.9-1.6l0,0l-0.2,1.4h2.2c0.1-0.8,0.2-1.7,0.4-2.7l1.1-5.7H40.1z"/>
		<path fill="#212121" d="M54.7,21.1c-1,0.5-2.2,0.7-3.1,0.7c-2.4,0-3.6-1.3-3.6-3.5c0-2.6,1.8-5.2,4.9-5.2c1.7,0,2.9,1,2.9,2.5
			c0,2.1-2.1,2.9-5.4,2.8c0,0.2,0.1,0.6,0.3,0.9c0.3,0.4,0.9,0.6,1.6,0.6c0.9,0,1.7-0.2,2.3-0.5L54.7,21.1z M52.5,14.8
			c-1.1,0-1.8,1-2,1.7c1.9,0,2.9-0.2,2.9-1C53.4,15.1,53,14.8,52.5,14.8"/>
		<path fill="#212121" d="M48.1,13c-1.1,0-2.1,0.8-2.7,1.9h-0.1c0.1-0.6,0.1-1.1,0.2-1.7h-2.1c-0.1,0.7-0.2,2.1-0.4,3.4l-0.9,5
			c0,0,2.2,0.3,2.8-1.6c0.1-0.5,0.3-1.5,0.3-1.5c0.3-1.6,1-3,2.6-3c0.1,0,0.3,0,0.4,0l0.5-2.4C48.4,13,48.2,13,48.1,13"/>
		<path fill="#212121" d="M12.6,12.2l0.4-2.1H6.2L4,21.6c2-0.4,2.7-1.9,3-2.8l0.4-1.9h4l0.4-2.1h-4l0.5-2.7H12.6z"/>
		<path fill="#212121" d="M79.5,15.9c-0.6,0-1-0.5-1-1V4.9c0-0.6,0.4-1,1-1h3.9l1.3,0v1.6v1.1h0.9h1.9l0,2.4v1.9h0.9v0V6.6V6v0
			l-2.7-3h-0.4h-0.7h-5.9c-0.7,0-1.2,0.5-1.2,1.2v11.6c0,0.7,0.5,1.2,1.2,1.2h5v-1H79.5z M87.1,5.8h-1.5l0-1.7L87.1,5.8z"/>
		<path fill="#212121" d="M89.9,10h-0.3H89h-5c-0.5,0-1,0.4-1,1v9.6c0,0.5,0.4,1,1,1h7.1c0.6,0,1-0.4,1-1v-7.5v-0.6v0L89.9,10z
			 M91,12.4h-1.3l0-1.4L91,12.4z M91.4,20c0,0.5-0.4,0.9-0.8,0.9h-5.9c-0.5,0-0.8-0.4-0.8-0.9v-8.3c0-0.5,0.4-0.9,0.8-0.9h3.3l1.1,0
			v1.3v0.9h0.8h1.6l0,2V20z"/>
	</g>
	<g>
		<g>
			<g>
				<g>
					<path fill="#212121" d="M30.9,31.5h2.3c0.2,0,0.5,0.1,0.6,0.3c0.2,0.2,0.3,0.4,0.3,0.6V33c0,0.2-0.1,0.5-0.3,0.6
						c-0.2,0.2-0.4,0.3-0.6,0.3h-2.3v1.5h-0.5v-1.5v-2.4H30.9z M30.9,33.4H33c0.1,0,0.2,0,0.3-0.1s0.1-0.2,0.1-0.3v-0.5
						c0-0.1,0-0.2-0.1-0.3C33.3,32,33.2,32,33,32h-2.2V33.4z"/>
					<path fill="#212121" d="M39.1,31.5c0.3,0,0.5,0.1,0.6,0.2c0.2,0.1,0.2,0.3,0.2,0.5v0.7c0,0.2,0,0.4-0.1,0.5
						c-0.1,0.1-0.2,0.1-0.4,0.1c0.2,0,0.3,0.1,0.4,0.2c0.1,0.1,0.1,0.3,0.1,0.5v1.2h-0.6v-1.3c0-0.2-0.2-0.3-0.5-0.3h-2.3v1.6h-0.5
						v-3.9H39.1z M36.6,33.3h2.3c0.3,0,0.5-0.1,0.5-0.3v-0.7c0-0.2-0.2-0.3-0.5-0.3h-2.3V33.3z"/>
					<path fill="#212121" d="M45.7,31.5V32H43c-0.1,0-0.2,0-0.3,0.1c-0.1,0.1-0.1,0.2-0.1,0.3v0.7h2.7v0.5h-2.7v0.8
						c0,0.1,0,0.2,0.1,0.3c0.1,0.1,0.2,0.1,0.3,0.1h2.7v0.5h-2.9c-0.2,0-0.5-0.1-0.6-0.3S42,34.8,42,34.5v-2.2
						c0-0.2,0.1-0.5,0.3-0.6c0.2-0.2,0.4-0.3,0.6-0.3H45.7z"/>
					<path fill="#212121" d="M52.8,31.5v3.9h-0.5v-2.8l-1.7,2.7h-0.5l-1.7-2.7v2.8h-0.5v-3.9h0.5l2,3.2l2-3.2H52.8z"/>
					<path fill="#212121" d="M54.9,31.5h0.5v3.9h-0.5V31.5z"/>
					<path fill="#212121" d="M58.1,31.5v3c0,0.1,0,0.2,0.1,0.3c0.1,0.1,0.2,0.1,0.3,0.1h2c0.1,0,0.2,0,0.3-0.1
						c0.1-0.1,0.1-0.2,0.1-0.3v-3h0.5v3c0,0.2-0.1,0.5-0.3,0.6s-0.4,0.3-0.6,0.3h-2.3c-0.2,0-0.5-0.1-0.6-0.3s-0.3-0.4-0.3-0.6v-3
						H58.1z"/>
					<path fill="#212121" d="M68.6,31.5v3.9h-0.5v-2.8l-1.7,2.7h-0.5l-1.7-2.7v2.8h-0.5v-3.9h0.5l2,3.2l2-3.2H68.6z"/>
				</g>
			</g>
		</g>
	</g>
</g>
</svg>
