<svg xmlns="http://www.w3.org/2000/svg" width="34.89" height="32.731" viewBox="0 0 34.89 32.731"><g transform="translate(0)"><path d="M-709.436,222.22a8.121,8.121,0,0,0-1.432-3.114c-.324-.4-.688-.777-1.035-1.163-.406-.452-.772-.931-1.215-1.35a9.672,9.672,0,0,0-2.845-1.808,16.568,16.568,0,0,0-7.432-1.355,14.124,14.124,0,0,0-10.811,6.363,12.272,12.272,0,0,0-2.133,6.705.463.463,0,0,0,.018.132,14.145,14.145,0,0,0,3.308,9.567c1.515,1.729,3.714,2.548,5.763,3.466a10.476,10.476,0,0,0,1.531.608,10.31,10.31,0,0,0,1.672.265,16.736,16.736,0,0,0,3.38.065,12.5,12.5,0,0,0,6.3-2.8,14.037,14.037,0,0,0,4.033-4.9,13.953,13.953,0,0,0,1.631-6.77A19.058,19.058,0,0,0-709.436,222.22Zm-.362,6.642a16.213,16.213,0,0,1-2.617,5.789,14.326,14.326,0,0,1-5.374,4.26,12.136,12.136,0,0,1-6.815.69,12.233,12.233,0,0,1-3.425-1.245,18.294,18.294,0,0,1-3.161-1.651,10.271,10.271,0,0,1-3.276-4.63,14.073,14.073,0,0,1-.972-5.68c.013-.316.045-.631.086-.945a.387.387,0,0,0-.029-.222,13.068,13.068,0,0,1,6.239-9.134,12.694,12.694,0,0,1,6.532-1.823,15.088,15.088,0,0,1,7.306,1.8,9.523,9.523,0,0,1,2.6,2.277,10.255,10.255,0,0,1,1.975,2.621,14.785,14.785,0,0,1,.532,1.787c.182.677.339,1.36.46,2.051A9.715,9.715,0,0,1-709.8,228.862Z" transform="translate(739.105 -210.657)" fill="#fff"/><path d="M-369.753,433.745a4,4,0,0,1-1.151,2.481c-.407.39.21,1.006.616.617a4.914,4.914,0,0,0,1.406-3.1C-368.836,433.184-369.708,433.189-369.753,433.745Z" transform="translate(397.686 -416.2)" fill="#fff"/><path d="M-346.319,408.175a.436.436,0,0,0,0,.872A.436.436,0,0,0-346.319,408.175Z" transform="translate(374.978 -392.693)" fill="#fff"/><path d="M-442.627,500.822a13.616,13.616,0,0,1-1.656,2.4,3.99,3.99,0,0,1-2.442,1.627c-.558.032-.562.9,0,.872a4.452,4.452,0,0,0,2.815-1.615,13.493,13.493,0,0,0,2.036-2.843C-441.6,500.769-442.357,500.329-442.627,500.822Z" transform="translate(468.818 -479.08)" fill="#fff"/><path d="M-593.65,270.407a9.527,9.527,0,0,0-2.32-.148c.008-.216,0-.433-.006-.653a1.343,1.343,0,0,1,.278-1.081,1.231,1.231,0,0,1,.823-.2c.354,0,.709.038,1.064.042a.363.363,0,0,0,.36-.36V265a.361.361,0,0,0-.264-.347,9.1,9.1,0,0,0-3.021-.054,7,7,0,0,0-2.833.87c-1.594,1.013-1.534,3.247-1.6,4.911-.154.023-.309.044-.465.06-.131.014-.545.075-.622-.007a.342.342,0,0,0-.558.084.347.347,0,0,0-.175.4,14.99,14.99,0,0,1,.053,3.5.327.327,0,0,0,.231.328.334.334,0,0,0,.324.228,11.041,11.041,0,0,0,1.338.018c-.011,1.884-.074,3.782.028,5.661.038.7.085,1.393.1,2.091.007.316,0,.634-.019.949a2.254,2.254,0,0,1-.043.3.912.912,0,0,1-.029.1c.011-.045-.065.082.007,0a.374.374,0,0,0,.354.612l.031,0a20.371,20.371,0,0,0,3.642.072.428.428,0,0,0,.049-.009l.066-.011a.327.327,0,0,0,.2-.52v-3.8c0-1.863.061-3.727.065-5.59.808.029,1.617,0,2.426-.014a.38.38,0,0,0,.631-.139.4.4,0,0,0,.024-.411c.006-1.028-.176-2.052-.073-3.081a.346.346,0,0,0-.012-.138A.358.358,0,0,0-593.65,270.407Zm-3.3,3.714a.328.328,0,0,0-.337.425.384.384,0,0,0-.022.131c0,1.882-.065,3.763-.065,5.645v3.8a16.935,16.935,0,0,1-2.856-.116,5.7,5.7,0,0,0,.042-.9c.006-.73-.044-1.461-.087-2.189-.124-2.138-.041-4.3-.041-6.437a.366.366,0,0,0-.636-.233,4.973,4.973,0,0,1-1.259.009,19.71,19.71,0,0,0,.007-3.063,5.76,5.76,0,0,0,1.493-.159.3.3,0,0,0,.226-.454.376.376,0,0,0,.039-.154c.055-1.432-.078-3.5,1.31-4.38a6.244,6.244,0,0,1,2.5-.741,8.673,8.673,0,0,1,2.468-.008v2.336a2.757,2.757,0,0,0-1.974.331c-.762.618-.455,1.57-.543,2.411a.365.365,0,0,0,.261.606,15.322,15.322,0,0,1,2.192.045.377.377,0,0,0-.067.184,25.774,25.774,0,0,0,.073,2.913C-595.135,274.137-596.043,274.176-596.949,274.121Z" transform="translate(614.478 -258.411)" fill="#fff"/><path d="M-700.923,261.647a7.18,7.18,0,0,0-3.722,2.41,13.652,13.652,0,0,0-2.509,3.937c-.216.518.628.743.84.231a12.8,12.8,0,0,1,2.2-3.456,6.458,6.458,0,0,1,3.424-2.282C-700.14,262.379-700.374,261.539-700.923,261.647Z" transform="translate(711.86 -255.736)" fill="#fff"/><path d="M-715.794,410.607c-.02-.56-.892-.562-.872,0a12.864,12.864,0,0,0,.771,4.648c.213.511,1.057.287.84-.231A12.172,12.172,0,0,1-715.794,410.607Z" transform="translate(720.718 -394.572)" fill="#fff"/><path d="M-712.469,382.387a.436.436,0,0,0,0-.872A.436.436,0,0,0-712.469,382.387Z" transform="translate(717.189 -367.776)" fill="#fff"/><path d="M-744.089,187.132a.36.36,0,0,0,0-.719H-745.4a.4.4,0,0,0-.087.01,18.888,18.888,0,0,0-.42-2.69,5.994,5.994,0,0,1,1.327.117c.451.1.643-.589.191-.694a7.539,7.539,0,0,0-1.689-.143q-.13-.521-.272-1.037c-.068-.248-.138-.491-.212-.728h1.423a.36.36,0,0,0,0-.719H-746.8a8.039,8.039,0,0,0-1.264-2.29c-.129-.161-.264-.318-.4-.473.544.053,1.091.08,1.632.082a.36.36,0,0,0,0-.719,15.737,15.737,0,0,1-2.374-.178l-.1-.108c-.488-.543-.927-1.117-1.458-1.62a9.432,9.432,0,0,0-.741-.631c.6.015,1.2.047,1.794.118.46.055.455-.665,0-.719a24.428,24.428,0,0,0-2.877-.13,13.908,13.908,0,0,0-1.591-.806,20.434,20.434,0,0,0-2.615-.922c1.4-.035,2.8-.037,4.206-.037a.36.36,0,0,0,0-.719c-2.374,0-4.75,0-7.119.17a18.7,18.7,0,0,0-3.391-.118,16.947,16.947,0,0,0-12.974,7.635,14.72,14.72,0,0,0-2.56,8.046.551.551,0,0,0,.021.159,16.973,16.973,0,0,0,3.969,11.48c1.818,2.076,4.456,3.058,6.915,4.159a12.529,12.529,0,0,0,1.837.73,12.364,12.364,0,0,0,2.007.318,20.117,20.117,0,0,0,4.055.078,13.192,13.192,0,0,0,4.918-1.6,9,9,0,0,0,3.462-.144c.425-.171.24-.866-.191-.694a4.839,4.839,0,0,1-2.172.184c.533-.343,1.049-.713,1.547-1.1q.4-.317.788-.652a.348.348,0,0,0,.195.055h1.7a.36.36,0,0,0,0-.719h-1.174a17.219,17.219,0,0,0,1.375-1.5h2.152a.36.36,0,0,0,0-.719h-1.6a15.805,15.805,0,0,0,1.4-2.337q.163-.335.318-.678a14.69,14.69,0,0,0,1.71.072.36.36,0,0,0,0-.719c-.47,0-.943,0-1.412-.04a19.482,19.482,0,0,0,.949-2.859,3.455,3.455,0,0,0,1.735.074c.453-.1.261-.793-.191-.694a2.6,2.6,0,0,1-1.39-.081,13.093,13.093,0,0,0,.255-2.747.415.415,0,0,0,.053,0Zm-2.692,2.814a19.457,19.457,0,0,1-3.141,6.948,17.194,17.194,0,0,1-6.449,5.111,14.566,14.566,0,0,1-8.178.828,14.669,14.669,0,0,1-4.111-1.494,21.956,21.956,0,0,1-3.794-1.981,12.33,12.33,0,0,1-3.931-5.555,16.884,16.884,0,0,1-1.166-6.816c.016-.379.053-.757.1-1.134a.473.473,0,0,0-.035-.266,15.683,15.683,0,0,1,7.487-10.961,15.227,15.227,0,0,1,7.839-2.188,18.113,18.113,0,0,1,8.768,2.164,11.431,11.431,0,0,1,3.124,2.733,12.29,12.29,0,0,1,2.37,3.145,17.881,17.881,0,0,1,.639,2.144c.219.813.407,1.633.552,2.461A11.657,11.657,0,0,1-746.78,189.946Z" transform="translate(778.631 -171.375)" fill="#fff"/></g></svg>