<svg id="Capa_1" data-name="Capa 1" xmlns="http://www.w3.org/2000/svg" viewBox="0 0 31.02 24"><defs><style>.cls-1{fill:#fff;}.cls-2{fill:#ff5f00;}.cls-3{fill:#eb001b;}.cls-4{fill:#f79e1b;}</style></defs><title>Logo_Mastercard</title><path class="cls-1" d="M6.06,23.32V21.81a.89.89,0,0,0-1-.95,1,1,0,0,0-.85.42.9.9,0,0,0-.81-.42.8.8,0,0,0-.7.35v-.3H2.21v2.41h.53V22c0-.43.23-.63.58-.63s.52.23.52.63v1.33h.53V22A.56.56,0,0,1,5,21.36c.35,0,.53.23.53.63v1.33Zm7.81-2.41H13v-.73h-.53v.73H12v.47h.48v1.11c0,.55.22.88.83.88a1.44,1.44,0,0,0,.65-.18l-.15-.45a.84.84,0,0,1-.45.13c-.25,0-.35-.15-.35-.41V21.38h.85v-.47Zm4.47-.05a.72.72,0,0,0-.63.35v-.3h-.52v2.41h.52V22c0-.4.18-.63.51-.63a1.77,1.77,0,0,1,.32.05l.15-.5a2.06,2.06,0,0,0-.35,0Zm-6.76.25a1.68,1.68,0,0,0-1-.25c-.6,0-1,.3-1,.78s.3.62.83.7l.25,0c.28.05.43.13.43.26s-.21.3-.56.3a1.4,1.4,0,0,1-.8-.25l-.25.4a1.76,1.76,0,0,0,1,.3c.7,0,1.1-.33,1.1-.78s-.32-.65-.83-.73l-.25,0c-.22,0-.4-.08-.4-.23s.18-.28.45-.28a1.77,1.77,0,0,1,.76.21l.22-.43Zm14-.25a.72.72,0,0,0-.63.35v-.3h-.52v2.41H25V22c0-.4.18-.63.51-.63a1.77,1.77,0,0,1,.32.05l.15-.5a2.06,2.06,0,0,0-.35,0Zm-6.73,1.25a1.21,1.21,0,0,0,1.28,1.26,1.29,1.29,0,0,0,.86-.28l-.26-.42a1,1,0,0,1-.62.22.71.71,0,0,1-.73-.78.75.75,0,0,1,.73-.78,1,1,0,0,1,.62.23l.26-.43a1.28,1.28,0,0,0-.86-.27,1.2,1.2,0,0,0-1.28,1.25Zm4.87,0v-1.2h-.52v.3a.91.91,0,0,0-.76-.35,1.26,1.26,0,0,0,0,2.51.87.87,0,0,0,.76-.35v.3h.52Zm-1.93,0a.73.73,0,1,1,1.46,0,.73.73,0,1,1-1.46,0ZM15.5,20.86a1.26,1.26,0,0,0,0,2.51,1.53,1.53,0,0,0,1-.33l-.25-.37a1.22,1.22,0,0,1-.71.25.69.69,0,0,1-.73-.58h1.79v-.2a1.11,1.11,0,0,0-1.11-1.28Zm0,.45a.59.59,0,0,1,.61.58H14.85a.64.64,0,0,1,.65-.58Zm13.09.8V20h-.52v1.26a.91.91,0,0,0-.76-.35,1.26,1.26,0,0,0,0,2.51.88.88,0,0,0,.76-.35v.3h.52Zm-1.93,0a.73.73,0,1,1,1.46,0,.75.75,0,0,1-.73.78.73.73,0,0,1-.73-.78ZM9,22.11v-1.2H8.49v.3a.88.88,0,0,0-.75-.35,1.26,1.26,0,0,0,0,2.51A.85.85,0,0,0,8.49,23v.3H9Zm-2,0a.73.73,0,1,1,.73.78A.73.73,0,0,1,7.06,22.11Z"/><rect class="cls-2" x="11.41" y="2.59" width="7.91" height="14.22"/><path class="cls-3" d="M11.91,9.7a9.08,9.08,0,0,1,3.44-7.11A9,9,0,1,0,9.77,18.75a9,9,0,0,0,5.58-1.94A9,9,0,0,1,11.91,9.7Z"/><path class="cls-4" d="M30,9.7a9,9,0,0,1-9,9.05,8.94,8.94,0,0,1-5.57-1.94,9.07,9.07,0,0,0,0-14.22A8.94,8.94,0,0,1,21,.66,9.06,9.06,0,0,1,30,9.7Z"/></svg>