<?xml version="1.0" encoding="utf-8"?>
<!-- Generator: Adobe Illustrator 16.0.3, SVG Export Plug-In . SVG Version: 6.00 Build 0)  -->
<!DOCTYPE svg PUBLIC "-//W3C//DTD SVG 1.1//EN" "http://www.w3.org/Graphics/SVG/1.1/DTD/svg11.dtd">
<svg version="1.1" id="Capa_1" xmlns="http://www.w3.org/2000/svg" xmlns:xlink="http://www.w3.org/1999/xlink" x="0px" y="0px"
	 width="505.475px" height="335.983px" viewBox="0 0 505.475 335.983" enable-background="new 0 0 505.475 335.983"
	 xml:space="preserve">
<g>
	<defs>
		<rect id="SVGID_1_" width="505.475" height="335.983"/>
	</defs>
	<clipPath id="SVGID_2_">
		<use xlink:href="#SVGID_1_"  overflow="visible"/>
	</clipPath>
	<path clip-path="url(#SVGID_2_)" fill="#5742A5" d="M107.07,325.932c0,1.157-0.984,2.023-2.14,2.023h-8.905
		c-2.485,0-3.527-1.039-3.527-3.469v-33.538c0-2.424,1.042-3.468,3.527-3.468h8.905c1.156,0,2.14,0.866,2.14,2.023
		c0,1.156-0.984,2.023-2.14,2.023h-8.037v12.146h7.169c1.157,0,2.14,0.866,2.14,2.023c0,1.153-0.983,2.023-2.14,2.023h-7.169v16.188
		h8.037C106.086,323.909,107.07,324.779,107.07,325.932"/>
	<path clip-path="url(#SVGID_2_)" fill="#5742A5" d="M132.635,309.744c1.62,0.926,3.297,3.295,3.297,6.709v9.425
		c0,1.212-0.984,2.196-2.199,2.196c-1.212,0-2.196-0.984-2.196-2.196v-8.213c0-3.295-1.735-5.838-4.567-5.838h-3.065v14.051
		c0,1.212-0.985,2.196-2.199,2.196c-1.212,0-2.197-0.984-2.197-2.196v-34.929c0-2.425,1.042-3.468,3.528-3.468h3.874
		c5.783,0,9.137,3.814,9.137,10.814v2.717C136.048,305,135.007,307.949,132.635,309.744 M131.77,300.086v-0.865
		c0-5.205-1.561-7.693-5.262-7.693h-2.602v16.246h2.602C130.208,307.774,131.77,305.292,131.77,300.086"/>
	<path clip-path="url(#SVGID_2_)" fill="#5742A5" d="M166.128,298.295v7.516c0,6.995-3.355,10.814-9.138,10.814h-3.353v9.252
		c0,1.212-0.984,2.196-2.198,2.196c-1.213,0-2.197-0.984-2.197-2.196v-34.929c0-2.424,1.042-3.468,3.527-3.468h4.221
		C162.773,287.481,166.128,291.295,166.128,298.295 M161.732,299.221c0-5.205-1.445-7.693-5.146-7.693h-2.949v21.051h2.949
		c3.701,0,5.146-2.488,5.146-7.693V299.221z"/>
	<path clip-path="url(#SVGID_2_)" fill="#5742A5" d="M192.395,318.936v-22.203c0-5.839,3.003-9.484,8.381-9.484
		c5.496,0,8.326,3.646,8.326,9.484v1.043c0,1.326-0.979,2.138-2.137,2.138s-2.142-0.812-2.142-2.256v-0.173
		c0-4.339-1.326-6.071-3.988-6.071c-2.716,0-4.046,1.732-4.046,6.071v20.699c0,4.279,1.444,6.07,4.105,6.07
		c2.657,0,3.929-1.731,3.929-5.897v-0.228c0-1.504,0.926-2.374,2.142-2.374c1.212,0,2.137,0.87,2.137,2.374v0.807
		c0,5.843-2.83,9.484-8.326,9.484C195.397,328.42,192.395,324.779,192.395,318.936"/>
	<path clip-path="url(#SVGID_2_)" fill="#5742A5" d="M220.737,318.936v-22.317c0-5.843,3.003-9.484,8.673-9.484
		c5.664,0,8.672,3.642,8.672,9.484v22.317c0,5.843-3.008,9.484-8.672,9.484C223.74,328.42,220.737,324.779,220.737,318.936
		 M233.689,318.184v-20.813c0-4.34-1.504-6.076-4.279-6.076c-2.776,0-4.281,1.736-4.281,6.076v20.813c0,4.339,1.505,6.07,4.281,6.07
		C232.185,324.254,233.689,322.523,233.689,318.184"/>
	<path clip-path="url(#SVGID_2_)" fill="#5742A5" d="M251.276,325.877v-29.491c0-5.838,2.948-9.484,8.559-9.484
		s8.559,3.646,8.559,9.484v29.491c0,1.212-0.984,2.196-2.196,2.196c-1.217,0-2.196-0.984-2.196-2.196v-28.739
		c0-4.339-1.45-6.07-4.166-6.07s-4.162,1.731-4.162,6.07v28.739c0,1.212-0.983,2.196-2.195,2.196
		C252.26,328.074,251.276,327.089,251.276,325.877"/>
	<path clip-path="url(#SVGID_2_)" fill="#5742A5" d="M285.635,325.877v-34.35h-4.974c-1.156,0-2.136-0.866-2.136-2.023
		s0.979-2.023,2.136-2.023h14.344c1.151,0,2.137,0.866,2.137,2.023s-0.985,2.023-2.137,2.023h-4.977v34.35
		c0,1.212-0.98,2.196-2.197,2.196C286.618,328.074,285.635,327.089,285.635,325.877"/>
	<path clip-path="url(#SVGID_2_)" fill="#5742A5" d="M324.618,296.386v29.491c0,1.212-0.983,2.196-2.196,2.196
		c-1.217,0-2.201-0.984-2.201-2.196v-12.492h-8.554v12.492c0,1.212-0.985,2.196-2.197,2.196c-1.217,0-2.201-0.984-2.201-2.196
		v-29.491c0-5.838,3.008-9.484,8.678-9.484C321.61,286.902,324.618,290.548,324.618,296.386 M320.221,309.338v-12.2
		c0-4.339-1.499-6.07-4.274-6.07s-4.279,1.731-4.279,6.07v12.2H320.221z"/>
	<path clip-path="url(#SVGID_2_)" fill="#5742A5" d="M355.851,315.701c0,8.094-2.89,12.372-8.673,12.372h-5.437
		c-2.484,0-3.527-1.043-3.527-3.472v-33.653c0-2.423,1.043-3.467,3.527-3.467h4.799c5.496,0,8.618,3.24,8.618,9.657
		c0,4.22-0.871,7.055-3.067,8.44C354.693,307.374,355.851,310.205,355.851,315.701 M342.493,303.673h3.413
		c3.527,0,4.973-2.143,4.973-6.188c0-3.761-1.272-5.957-4.686-5.957h-3.7V303.673z M351.457,315.468
		c0-5.551-1.736-7.748-5.264-7.748h-3.7v16.307h3.817C350.414,324.027,351.457,321.133,351.457,315.468"/>
	<path clip-path="url(#SVGID_2_)" fill="#5742A5" d="M368.466,324.487v-35.042c0-1.212,0.983-2.196,2.196-2.196
		c1.217,0,2.2,0.984,2.2,2.196v34.35h7.629c1.272,0,2.198,0.866,2.198,2.083c0,1.212-0.926,2.078-2.198,2.078h-8.499
		C369.509,327.956,368.466,326.917,368.466,324.487"/>
	<path clip-path="url(#SVGID_2_)" fill="#5742A5" d="M408.315,325.932c0,1.157-0.984,2.023-2.143,2.023h-8.904
		c-2.484,0-3.527-1.039-3.527-3.469v-33.538c0-2.424,1.043-3.468,3.527-3.468h8.904c1.158,0,2.143,0.866,2.143,2.023
		c0,1.156-0.984,2.023-2.143,2.023h-8.034v12.146h7.169c1.156,0,2.138,0.866,2.138,2.023c0,1.153-0.981,2.023-2.138,2.023h-7.169
		v16.188h8.034C407.331,323.909,408.315,324.779,408.315,325.932"/>
</g>
<g>
	<defs>
		<path id="SVGID_3_" d="M317.868,164.148V151.25c0-1.14,0.925-2.064,2.064-2.064h17.635c1.139,0,2.062-0.924,2.062-2.064v-19.309
			c0-1.139,0.926-2.064,2.065-2.064h19.167c1.141,0,2.064,0.925,2.064,2.064v19.309c0,1.14,0.923,2.064,2.064,2.064h17.634
			c1.14,0,2.063,0.924,2.063,2.064v12.898c0,1.14-0.924,2.064-2.063,2.064H364.99c-1.142,0-2.064,0.924-2.064,2.063v20.139
			c0,1.14-0.924,2.064-2.064,2.064h-19.167c-1.14,0-2.065-0.925-2.065-2.064v-20.139c0-1.139-0.923-2.063-2.062-2.063h-17.635
			C318.793,166.212,317.868,165.288,317.868,164.148 M69.366,194.028c-1.573-0.688-2.595-2.228-2.595-3.946v-20.143
			c0-31.97,10.391-51.951,27.973-51.951c17.586,0,24.779,16.382,24.779,38.362c0,21.98-9.991,41.164-29.972,41.164
			C80.87,197.514,74.141,196.118,69.366,194.028 M237.358,160.749c0-23.579,9.993-43.163,31.573-43.163
			c7.658,0,13.787,1.53,18.387,3.366c1.942,0.775,3.19,2.679,3.19,4.769v14.246c0,39.163-10.791,56.748-27.971,56.748
			C244.553,196.714,237.358,179.928,237.358,160.749 M61.498,7.499L9.326,19.856c-1.933,0.458-3.299,2.184-3.299,4.171v188.3
			c0,1.265,0.556,2.458,1.521,3.275c8.524,7.203,37.338,29.468,83.199,29.468c46.591,0,76.57-24.143,86.99-58.251
			c7.419,36.457,32.159,58.251,66.014,58.251c18.963,0,30.697-8.397,37.67-16.75c3.08-3.69,9.087-1.488,9.087,3.319v5.078
			c0,2.847,2.311,5.154,5.155,5.154h50.436c2.848,0,5.154-2.308,5.154-5.154v-37.883c13.199,29.647,42.218,46.235,83.118,46.235
			c23.154,0,44.216-5.932,62.527-17.472c2.162-1.362,2.868-4.192,1.62-6.421l-17.55-31.342c-1.351-2.412-4.438-3.175-6.779-1.699
			c-8.348,5.259-20.546,8.977-31.026,8.977c-23.578,0-39.563-16.383-39.563-40.362c0-24.377,15.985-40.762,40.363-40.762
			c10.495,0,23.143,2.422,33.084,6.162c3.033,1.141,6.3-0.966,6.496-4.201l2.169-35.635c0.13-2.139-1.16-4.118-3.184-4.825
			c-11.58-4.046-31.211-6.659-48.556-6.659c-40.166,0-69.414,17.099-82.72,46.559v-13.013c0-1.52-0.663-2.961-1.829-3.939
			c-8.894-7.463-37.57-29.208-82.893-29.208c-47,0-77.095,24.825-87.261,61.762c-7.862-37.07-32.939-61.762-64.543-61.762
			c-21.309,0-33.561,9.297-40.34,17.937c-2.492,3.176-7.616,1.337-7.616-2.7V11.67c0-2.422-1.978-4.288-4.276-4.288
			C62.167,7.382,61.834,7.42,61.498,7.499"/>
	</defs>
	<clipPath id="SVGID_4_">
		<use xlink:href="#SVGID_3_"  overflow="visible"/>
	</clipPath>
	
		<linearGradient id="SVGID_5_" gradientUnits="userSpaceOnUse" x1="0" y1="336.0229" x2="1" y2="336.0229" gradientTransform="matrix(348.1931 348.1931 348.1931 -348.1931 -116923.3359 116951.6641)">
		<stop  offset="0" style="stop-color:#706AE8"/>
		<stop  offset="0.5536" style="stop-color:#5742A5"/>
		<stop  offset="0.9752" style="stop-color:#9B41B2"/>
		<stop  offset="1" style="stop-color:#9B41B2"/>
	</linearGradient>
	<polygon clip-path="url(#SVGID_4_)" fill="url(#SVGID_5_)" points="252.897,-239.488 618.611,126.226 252.896,491.94 
		-112.817,126.226 	"/>
</g>
</svg>
