<svg id="Capa_1" data-name="Capa 1" xmlns="http://www.w3.org/2000/svg" viewBox="0 0 90 90"><defs><style>.cls-1{fill:#ebebeb;}.cls-2{fill:#fff;}.cls-3{fill:#f29100;}.cls-4{fill:#d4d4d4;}</style></defs><title>Mesa de trabajo 6</title><rect class="cls-1" x="6.84" y="1.8" width="75.36" height="86.41" rx="10.63" ry="10.63"/><path class="cls-2" d="M72.29,88.64H16.75A10.36,10.36,0,0,1,6.4,78.29V11.71A10.36,10.36,0,0,1,16.75,1.36H72.29A10.36,10.36,0,0,1,82.64,11.71V78.29A10.36,10.36,0,0,1,72.29,88.64ZM16.75,2.24a9.48,9.48,0,0,0-9.47,9.47V78.29a9.48,9.48,0,0,0,9.47,9.47H72.29a9.48,9.48,0,0,0,9.47-9.47V11.71a9.48,9.48,0,0,0-9.47-9.47Z"/><rect class="cls-3" x="18.24" y="50.49" width="7.05" height="7.05"/><rect class="cls-3" x="18.24" y="59.18" width="7.05" height="7.05"/><rect class="cls-3" x="26.28" y="59.18" width="7.05" height="7.05"/><rect class="cls-3" x="18.24" y="67.34" width="7.05" height="7.05"/><rect class="cls-3" x="26.28" y="67.34" width="7.05" height="7.05"/><rect class="cls-3" x="34.43" y="67.34" width="7.05" height="7.05"/><rect class="cls-4" x="26.98" y="50.56" width="7.05" height="7.05"/><rect class="cls-4" x="34.43" y="58.95" width="7.05" height="7.05"/><rect class="cls-4" x="42.36" y="67.34" width="7.05" height="7.05"/><rect class="cls-3" x="18.24" y="75.15" width="7.05" height="7.05"/><rect class="cls-3" x="26.28" y="75.15" width="7.05" height="7.05"/><rect class="cls-3" x="34.43" y="75.15" width="7.05" height="7.05"/><rect class="cls-3" x="42.36" y="75.15" width="7.05" height="7.05"/><path d="M71.93,30.55H18.5V16.11H71.93Zm-53-.46H71.47V16.57H19Z"/><path d="M37.69,24.92h0l-1.42,2.37H33.77l2.49-4-2.38-3.94h2.43l1.36,2.3h0l1.36-2.3h2.42l-2.38,3.94,2.49,4H39.1Z"/><path d="M50.54,19.35v7.94h-2.1V23.38h0l-1.33,2.48H45.72l-1.34-2.49h0v3.92h-2.1V19.35H44.4l2,3.92h0l2-3.92Z"/><path d="M51.72,19.35h2.14v6H57v1.89h-5.3Z"/><circle class="cls-3" cx="77.12" cy="9.71" r="6.48"/><path d="M69.4,9.88A7.7,7.7,0,0,1,71.92,4V2.48H18.55v14H71.92V15.41A7.71,7.71,0,0,1,69.4,9.88Z"/><path class="cls-2" d="M76.13,13.37a1.12,1.12,0,0,1-.58-.17l-2.12-1.36a1.06,1.06,0,0,1-.31-1.45,1,1,0,0,1,1.45-.31L76,11l3.52-3.63A1,1,0,0,1,81,8.79l-4.12,4.26A1.11,1.11,0,0,1,76.13,13.37Z"/><path class="cls-2" d="M34.29,5.48h3.09a3.89,3.89,0,0,1,1.06.14,2.5,2.5,0,0,1,.82.39,2.14,2.14,0,0,1,.56.6,2.32,2.32,0,0,1,.34.77,3.89,3.89,0,0,1,.11.93,2.82,2.82,0,0,1-.38,1.49,2.28,2.28,0,0,1-1,.91,4.07,4.07,0,0,1-1.59.29h-.9v2.43H34.29ZM36.9,9.16a1.42,1.42,0,0,0,.84-.23.79.79,0,0,0,.31-.67.84.84,0,0,0-.29-.65,1.29,1.29,0,0,0-.85-.26h-.56V9.16Z"/><path class="cls-2" d="M41,5.48H43.9a4.63,4.63,0,0,1,1.7.3,3.77,3.77,0,0,1,1.31.81,3.62,3.62,0,0,1,.82,1.26A4.32,4.32,0,0,1,48,9.47a4.55,4.55,0,0,1-.28,1.6,3.44,3.44,0,0,1-.8,1.25,3.57,3.57,0,0,1-1.29.82,5,5,0,0,1-1.72.29H41Zm2.76,6.06a2,2,0,0,0,1.05-.28,1.94,1.94,0,0,0,.7-.75,2.13,2.13,0,0,0,.25-1,2.31,2.31,0,0,0-.15-.83A1.89,1.89,0,0,0,45.26,8a1.72,1.72,0,0,0-.59-.44A1.64,1.64,0,0,0,44,7.38h-.84v4.16Z"/><path class="cls-2" d="M49,5.48h5.46v1.9H51V8.87h2.78v1.89H51v2.67H49Z"/></svg>