<svg id="Capa_1" data-name="Capa 1" xmlns="http://www.w3.org/2000/svg" viewBox="0 0 90 90"><defs><style>.cls-1{fill:#ebebeb;stroke:#fff;stroke-miterlimit:10;}.cls-2{fill:#f29100;}.cls-3{fill:#fff;}</style></defs><title>Mesa de trabajo 5</title><path d="M84,79H6a2.5,2.5,0,0,1,0-5H84a2.5,2.5,0,0,1,0,5Z"/><path class="cls-1" d="M64.94,16l-51.85.31-.69.7L44.74,49,66.1,27.34a10.62,10.62,0,0,1-2.28-6.52A10.72,10.72,0,0,1,64.94,16Z"/><path class="cls-1" d="M68,29.26,44.76,52.81l-35-34.63L10,67.72l69.61-.41-.22-37a10.66,10.66,0,0,1-11.36-1Z"/><circle class="cls-2" cx="74.84" cy="20.29" r="9.29"/><path class="cls-3" d="M73.34,25.5a1.47,1.47,0,0,1-.83-.25l-3-2a1.5,1.5,0,0,1,1.66-2.5l2,1.32,5.13-5.13a1.5,1.5,0,0,1,2.12,2.12l-6,6A1.49,1.49,0,0,1,73.34,25.5Z"/></svg>