<svg id="Capa_1" data-name="Capa 1" xmlns="http://www.w3.org/2000/svg" viewBox="0 0 90 90"><defs><style>.cls-1{fill:#ebebeb;}.cls-2{fill:#fff;}.cls-3{fill:#f29100;}</style></defs><title>Mesa de trabajo 1</title><rect class="cls-1" x="7.25" y="2" width="76.31" height="86" rx="10.63" ry="10.63"/><path class="cls-2" d="M74.2,88.44H16.61a9.81,9.81,0,0,1-9.8-9.8V11.36a9.81,9.81,0,0,1,9.8-9.8H74.2a9.82,9.82,0,0,1,9.8,9.8V78.64A9.82,9.82,0,0,1,74.2,88.44Zm-57.59-86a8.93,8.93,0,0,0-8.92,8.92V78.64a8.93,8.93,0,0,0,8.92,8.92H74.2a8.93,8.93,0,0,0,8.92-8.92V11.36A8.93,8.93,0,0,0,74.2,2.44Z"/><rect class="cls-3" x="16.25" y="47.12" width="6.66" height="6.66"/><rect class="cls-3" x="16.25" y="55.34" width="6.66" height="6.66"/><rect class="cls-3" x="23.85" y="55.34" width="6.66" height="6.66"/><rect class="cls-3" x="16.25" y="63.04" width="6.66" height="6.66"/><rect class="cls-3" x="23.85" y="63.04" width="6.66" height="6.66"/><rect class="cls-3" x="31.55" y="63.04" width="6.66" height="6.66"/><rect class="cls-3" x="16.25" y="70.41" width="6.66" height="6.66"/><rect class="cls-3" x="23.85" y="70.41" width="6.66" height="6.66"/><rect class="cls-3" x="31.55" y="70.41" width="6.66" height="6.66"/><rect class="cls-3" x="39.04" y="70.41" width="6.66" height="6.66"/><rect class="cls-3" x="16.25" y="47.12" width="6.66" height="6.66"/><rect class="cls-3" x="16.25" y="55.34" width="6.66" height="6.66"/><rect class="cls-3" x="23.85" y="55.34" width="6.66" height="6.66"/><rect class="cls-3" x="16.25" y="63.04" width="6.66" height="6.66"/><rect class="cls-3" x="23.85" y="63.04" width="6.66" height="6.66"/><rect class="cls-3" x="31.55" y="63.04" width="6.66" height="6.66"/><rect class="cls-3" x="16.25" y="70.41" width="6.66" height="6.66"/><rect class="cls-3" x="23.85" y="70.41" width="6.66" height="6.66"/><rect class="cls-3" x="31.55" y="70.41" width="6.66" height="6.66"/><rect class="cls-3" x="39.04" y="70.41" width="6.66" height="6.66"/><rect x="20.07" y="2.64" width="50.42" height="13.21"/><path class="cls-2" d="M34.93,5.48h2.92a3.53,3.53,0,0,1,1,.13,2.4,2.4,0,0,1,.77.37,2.22,2.22,0,0,1,.85,1.3,3.46,3.46,0,0,1,.1.87,2.64,2.64,0,0,1-.35,1.41,2.18,2.18,0,0,1-1,.86,3.87,3.87,0,0,1-1.51.28h-.85V13h-2ZM37.41,9a1.34,1.34,0,0,0,.79-.22.74.74,0,0,0,.29-.64.77.77,0,0,0-.28-.61,1.18,1.18,0,0,0-.8-.24h-.53V9Z"/><path class="cls-2" d="M41.32,5.48H44a4.39,4.39,0,0,1,1.61.28,3.58,3.58,0,0,1,1.23.77,3.33,3.33,0,0,1,.78,1.19,4.25,4.25,0,0,1,.28,1.53,4.1,4.1,0,0,1-.27,1.51A3.26,3.26,0,0,1,46.9,12a3.44,3.44,0,0,1-1.22.77,4.68,4.68,0,0,1-1.63.27H41.32Zm2.6,5.72a1.82,1.82,0,0,0,1.66-1,2.11,2.11,0,0,0,.23-1,2,2,0,0,0-.14-.78,1.76,1.76,0,0,0-.92-1.05,1.65,1.65,0,0,0-.69-.15h-.79V11.2Z"/><path class="cls-2" d="M48.79,5.48H54V7.27H50.74V8.69h2.62v1.78H50.74V13h-2Z"/><path d="M70.5,29.17H20V15.52H70.5Zm-50-.44h49.6V16H20.46Z"/><path d="M38.15,23.84h0l-1.34,2.25H34.45L36.8,22.3l-2.25-3.72h2.3l1.28,2.18h0l1.28-2.18h2.29L39.47,22.3l2.36,3.79H39.49Z"/><path d="M50.29,18.58v7.51h-2v-3.7h0L47,24.73H45.73l-1.26-2.35h0v3.71h-2V18.58h2l1.87,3.71h0l1.85-3.71Z"/><path d="M51.4,18.58h2V24.3h3v1.79h-5Z"/></svg>