<svg id="Capa_1" data-name="Capa 1" xmlns="http://www.w3.org/2000/svg" viewBox="0 0 90 90"><defs><style>.cls-1{fill:#ebebeb;}.cls-2{fill:#fff;}.cls-3{fill:#f29100;}</style></defs><title>Mesa de trabajo 7</title><rect class="cls-1" x="6.82" y="4.36" width="73.1" height="82.38" rx="10.63" ry="10.63"/><path class="cls-2" d="M71,87.16H15.79A9.4,9.4,0,0,1,6.4,77.77V13.32a9.41,9.41,0,0,1,9.39-9.39H71a9.4,9.4,0,0,1,9.39,9.39V77.77A9.4,9.4,0,0,1,71,87.16ZM15.79,4.78a8.55,8.55,0,0,0-8.54,8.54V77.77a8.55,8.55,0,0,0,8.54,8.54H71a8.55,8.55,0,0,0,8.54-8.54V13.32A8.55,8.55,0,0,0,71,4.78Z"/><rect x="19.83" y="4.87" width="47.94" height="12.65"/><path class="cls-2" d="M36.78,12.63h0l-1.28,2.15H33.23l2.25-3.63L33.33,7.59h2.2l1.22,2.08h0L38,7.59H40.2L38,11.15l2.26,3.63H38.05Z"/><path class="cls-2" d="M48.4,7.59v7.19H46.5V11.23h0l-1.2,2.25H44l-1.21-2.26h0v3.56H40.9V7.59h2l1.79,3.55h0l1.77-3.55Z"/><path class="cls-2" d="M49.47,7.59h1.94v5.48h2.86v1.71h-4.8Z"/><path class="cls-3" d="M17.21,69.69V67.5l8.66-3.67v2.93l-4.77,1.8,4.77,1.85v2.86Z"/><path class="cls-3" d="M26.13,74.51,33,59l2.17,1L28.33,75.51Z"/><path class="cls-3" d="M35.63,70.41l4.77-1.85-4.77-1.8V63.83l8.66,3.67v2.19l-8.66,3.58Z"/><circle class="cls-3" cx="76.61" cy="9.83" r="6.99"/><path class="cls-2" d="M75.55,13.77a1,1,0,0,1-.63-.18l-2.28-1.46a1.13,1.13,0,1,1,1.22-1.9l1.5,1,3.8-3.92a1.13,1.13,0,1,1,1.62,1.57l-4.44,4.59A1.1,1.1,0,0,1,75.55,13.77Z"/></svg>