<?xml version="1.0" encoding="utf-8"?>
<!-- Generator: Adobe Illustrator 22.0.0, SVG Export Plug-In . SVG Version: 6.00 Build 0)  -->
<svg version="1.1" id="Capa_1" xmlns="http://www.w3.org/2000/svg" xmlns:xlink="http://www.w3.org/1999/xlink" x="0px" y="0px"
	 viewBox="0 0 69.8 64.4" style="enable-background:new 0 0 69.8 64.4;" xml:space="preserve">
<style type="text/css">
	.st0{fill:#008700;}
	.st1{enable-background:new    ;}
	.st2{fill:#FFFF00;}
</style>
<title>FY_Marcador</title>
<polyline class="st0" points="-0.1,0 69.9,0 69.9,63 "/>
<g class="st1">
	<path class="st2" d="M25.6,13.3L24.2,12l1.5-1.6c0.4-0.5,0.9-0.9,1.3-1.3c0.4-0.4,0.9-0.7,1.3-1.1l1,0.9c-0.3,0.5-0.7,0.9-1,1.4
		c-0.4,0.4-0.7,0.9-1.2,1.4L25.6,13.3z M30.8,8.1c-0.2,0.3-0.5,0.4-0.8,0.4c-0.3,0-0.6-0.1-0.8-0.3c-0.2-0.2-0.3-0.4-0.4-0.7
		c0-0.3,0.1-0.6,0.3-0.8c0.2-0.3,0.5-0.4,0.8-0.4c0.3,0,0.6,0.1,0.8,0.3c0.2,0.2,0.3,0.4,0.4,0.7C31.1,7.5,31,7.8,30.8,8.1z"/>
	<path class="st2" d="M32.4,16.8c0.3-1.1,0.5-2.2,0.7-3.3c0.2-1.1,0.3-2.2,0.4-3.3l-3.8,4l-1.3-1.3l5.7-6.1l1.1,1.1
		c0,0.4,0,0.8,0,1.3c0,0.5-0.1,1-0.1,1.6c-0.1,0.5-0.1,1.1-0.2,1.7c-0.1,0.6-0.2,1.1-0.3,1.6l3.4-3.6l1.4,1.3l-5.7,6.1L32.4,16.8z"
		/>
	<path class="st2" d="M37.2,21.6c-0.4-0.4-0.7-0.8-0.9-1.2c-0.2-0.4-0.3-0.8-0.3-1.2c0-0.4,0.1-0.8,0.3-1.2c0.2-0.4,0.4-0.8,0.8-1.1
		l3.6-3.8l1.4,1.3L38.5,18c-0.2,0.2-0.4,0.5-0.5,0.7c-0.1,0.2-0.2,0.4-0.2,0.6s0,0.4,0.1,0.6c0.1,0.2,0.2,0.3,0.4,0.5
		c0.3,0.3,0.7,0.5,1.1,0.5s0.8-0.3,1.3-0.7l3.5-3.7l1.4,1.3L42,21.5c-0.3,0.4-0.7,0.6-1.1,0.8c-0.4,0.2-0.8,0.3-1.2,0.3
		s-0.8-0.1-1.2-0.2C38.1,22.3,37.6,22,37.2,21.6z"/>
</g>
<g class="st1">
	<path class="st2" d="M41.2,25.1l5.7-6.1l4.1,3.9L49.9,24l-2.7-2.6L46,22.6l2.4,2.3L47.4,26L45,23.7l-1.4,1.5l2.9,2.8l-1.1,1.1
		L41.2,25.1z"/>
</g>
<g class="st1">
	<path class="st2" d="M48.4,31.9c0.2-0.7,0.5-1.5,0.8-2.3c0.3-0.8,0.6-1.5,0.9-2.3c0.3-0.7,0.6-1.4,0.9-2.1c0.3-0.7,0.5-1.2,0.8-1.7
		l1.5,1.4c-0.2,0.5-0.4,1-0.7,1.5c-0.2,0.5-0.5,1.1-0.7,1.6c-0.2,0.5-0.5,1.1-0.7,1.5c-0.2,0.5-0.4,0.9-0.5,1.3
		c0.4-0.2,0.8-0.4,1.3-0.6c0.5-0.2,1-0.5,1.5-0.8c0.5-0.3,1-0.5,1.6-0.8c0.5-0.3,1-0.5,1.5-0.8l1.5,1.4c-0.5,0.3-1.1,0.5-1.7,0.9
		c-0.6,0.3-1.3,0.7-2,1c-0.7,0.3-1.5,0.7-2.2,1c-0.8,0.3-1.5,0.6-2.2,0.9L48.4,31.9z"/>
</g>
<g class="st1">
	<path class="st2" d="M61.3,38.4c-0.5,0.5-1,0.9-1.5,1.2s-1.1,0.4-1.6,0.4c-0.5,0-1-0.1-1.5-0.3c-0.5-0.2-1-0.5-1.4-0.9
		c-0.4-0.4-0.7-0.8-1-1.3c-0.2-0.5-0.4-1-0.4-1.5s0.1-1.1,0.3-1.6c0.2-0.5,0.6-1.1,1.1-1.6c0.5-0.5,1-0.9,1.5-1.1s1.1-0.4,1.6-0.4
		c0.5,0,1,0.1,1.5,0.3c0.5,0.2,0.9,0.5,1.3,0.9c0.4,0.4,0.7,0.8,1,1.3c0.2,0.5,0.4,1,0.4,1.5c0,0.5-0.1,1.1-0.3,1.6
		C62.2,37.3,61.8,37.8,61.3,38.4z M56.7,34c-0.3,0.3-0.5,0.6-0.7,0.9c-0.2,0.3-0.2,0.6-0.3,0.9c0,0.3,0,0.6,0.1,0.9
		c0.1,0.3,0.3,0.5,0.6,0.8c0.3,0.2,0.5,0.4,0.8,0.5s0.6,0.1,0.9,0.1c0.3,0,0.6-0.1,0.9-0.3c0.3-0.2,0.6-0.4,0.9-0.7
		c0.3-0.3,0.5-0.6,0.7-0.9s0.2-0.6,0.3-0.9c0-0.3,0-0.6-0.1-0.9c-0.1-0.3-0.3-0.5-0.5-0.8c-0.3-0.2-0.5-0.4-0.8-0.5
		c-0.3-0.1-0.6-0.1-0.9-0.1c-0.3,0-0.6,0.2-0.9,0.3C57.2,33.5,57,33.7,56.7,34z"/>
	<path class="st2" d="M61.6,43.1c-0.2,0.3-0.5,0.4-0.8,0.4c-0.3,0-0.6-0.1-0.8-0.3s-0.3-0.4-0.4-0.7c0-0.3,0.1-0.6,0.3-0.8
		s0.5-0.4,0.8-0.4c0.3,0,0.6,0.1,0.8,0.3c0.2,0.2,0.3,0.4,0.4,0.7C61.9,42.5,61.8,42.8,61.6,43.1z M65.1,39.2
		c-0.4,0.5-0.9,0.9-1.3,1.3c-0.4,0.4-0.9,0.7-1.3,1.1l-1-0.9c0.3-0.5,0.7-0.9,1-1.4c0.3-0.4,0.7-0.9,1.2-1.4l1.5-1.6l1.4,1.3
		L65.1,39.2z"/>
</g>
<path class="st2" d="M57.5,14.4l-0.4,0.8c-0.1,0.3-0.1,0.6,0.1,0.8l0.7,0.6c0.3,0.3,0.3,0.7,0,1c-0.2,0.2-0.4,0.2-0.6,0.2l-0.9-0.1
	c-0.3-0.1-0.6,0.1-0.7,0.4l-0.4,0.8c-0.2,0.3-0.6,0.4-0.9,0.2c-0.2-0.1-0.3-0.3-0.3-0.4l-0.1-0.9c-0.1-0.3-0.3-0.5-0.6-0.6l-0.9-0.1
	c-0.4-0.1-0.6-0.4-0.6-0.8c0-0.2,0.2-0.4,0.4-0.5l0.8-0.4c0.3-0.1,0.4-0.4,0.4-0.7l-0.1-0.9c-0.1-0.4,0.2-0.7,0.6-0.8
	c0.2,0,0.5,0,0.6,0.2l0.7,0.6c0.2,0.2,0.5,0.3,0.8,0.1l0.8-0.4c0.3-0.2,0.7,0,0.9,0.3C57.6,14.1,57.6,14.3,57.5,14.4z"/>
</svg>
