<svg id="Capa_1" data-name="Capa 1" xmlns="http://www.w3.org/2000/svg" viewBox="0 0 90 90"><defs><style>.cls-1{fill:#ebebeb;}.cls-2{fill:#fff;}.cls-3{fill:#f29100;}</style></defs><title>Mesa de trabajo 2</title><rect class="cls-1" x="6.84" y="2.46" width="76.15" height="85.82" rx="10.63" ry="10.63"/><path class="cls-2" d="M73.65,88.71H16.19A9.79,9.79,0,0,1,6.4,78.93V11.8A9.79,9.79,0,0,1,16.19,2H73.65a9.79,9.79,0,0,1,9.79,9.78V78.93A9.79,9.79,0,0,1,73.65,88.71ZM16.19,2.9a8.92,8.92,0,0,0-8.91,8.9V78.93a8.92,8.92,0,0,0,8.91,8.91H73.65a8.92,8.92,0,0,0,8.91-8.91V11.8a8.92,8.92,0,0,0-8.91-8.9Z"/><rect class="cls-3" x="15.83" y="47.49" width="6.65" height="6.65"/><rect class="cls-3" x="15.83" y="55.68" width="6.65" height="6.65"/><rect class="cls-3" x="23.41" y="55.68" width="6.65" height="6.65"/><rect class="cls-3" x="15.83" y="63.37" width="6.65" height="6.65"/><rect class="cls-3" x="23.41" y="63.37" width="6.65" height="6.65"/><rect class="cls-3" x="31.1" y="63.37" width="6.65" height="6.65"/><rect class="cls-3" x="15.83" y="70.73" width="6.65" height="6.65"/><rect class="cls-3" x="23.41" y="70.73" width="6.65" height="6.65"/><rect class="cls-3" x="31.1" y="70.73" width="6.65" height="6.65"/><rect class="cls-3" x="38.57" y="70.73" width="6.65" height="6.65"/><rect class="cls-3" x="15.83" y="47.49" width="6.65" height="6.65"/><rect class="cls-3" x="15.83" y="55.68" width="6.65" height="6.65"/><rect class="cls-3" x="23.41" y="55.68" width="6.65" height="6.65"/><rect class="cls-3" x="15.83" y="63.37" width="6.65" height="6.65"/><rect class="cls-3" x="23.41" y="63.37" width="6.65" height="6.65"/><rect class="cls-3" x="31.1" y="63.37" width="6.65" height="6.65"/><rect class="cls-3" x="15.83" y="70.73" width="6.65" height="6.65"/><rect class="cls-3" x="23.41" y="70.73" width="6.65" height="6.65"/><rect class="cls-3" x="31.1" y="70.73" width="6.65" height="6.65"/><rect class="cls-3" x="38.57" y="70.73" width="6.65" height="6.65"/><path d="M70,29.57H19.59V16H70ZM20,29.13h49.5V16.39H20Z"/><path d="M37.69,24.25h0l-1.34,2.24H34l2.35-3.77L34.09,19h2.29l1.28,2.17h0L39,19h2.29L39,22.72l2.35,3.77H39Z"/><path d="M49.8,19v7.49h-2V22.8h0l-1.25,2.34H45.25L44,22.79h0v3.7H42V19h2l1.86,3.7h0L47.76,19Z"/><path d="M50.91,19h2v5.71h3v1.78h-5Z"/><path class="cls-3" d="M83.6,8.07c0,.37-1.2.68-1.25,1s1.06,1,1,1.3-1.34.32-1.48.65.74,1.21.55,1.53-1.38-.09-1.61.2.37,1.37.1,1.62-1.3-.47-1.6-.26,0,1.42-.36,1.58-1.11-.81-1.46-.7-.43,1.35-.79,1.41-.84-1.09-1.21-1.08-.8,1.18-1.16,1.14-.5-1.29-.85-1.38-1.1.91-1.43.76-.12-1.37-.43-1.56-1.31.56-1.59.33.28-1.35,0-1.63-1.41.18-1.62-.13.65-1.21.49-1.54-1.4-.23-1.52-.58,1-1,.91-1.35S67,8.81,67,8.43s1.2-.68,1.24-1-1-.95-1-1.3,1.34-.32,1.49-.65S68,4.22,68.21,3.91s1.37.08,1.61-.2-.38-1.37-.11-1.62,1.3.47,1.61.26,0-1.42.35-1.58,1.11.81,1.47.7.42-1.36.79-1.42.83,1.1,1.2,1.09S75.93,0,76.29,0s.5,1.29.86,1.38S78.24.47,78.58.62,78.69,2,79,2.18s1.31-.56,1.59-.33-.27,1.35,0,1.62S82,3.3,82.18,3.6s-.64,1.22-.48,1.55,1.4.23,1.51.58-1,1-.9,1.35S83.59,7.69,83.6,8.07Z"/><path d="M69.24,14.93c-.3-.25.3-1.43,0-1.72s-1.49.19-1.71-.13.69-1.29.52-1.64-1.49-.24-1.61-.62,1-1,1-1.42-1.36-.65-1.37-1.05,1.27-.72,1.32-1.1-1.12-1-1-1.38,1.42-.33,1.58-.69-.79-1.28-.59-1.61,1.46.09,1.71-.21a.5.5,0,0,0,0-.26H19.64V16.28H70V14.82C69.65,14.94,69.37,15,69.24,14.93Z"/><path class="cls-2" d="M34.47,5.93h2.92a3.51,3.51,0,0,1,1,.13,2.39,2.39,0,0,1,.77.36,2.21,2.21,0,0,1,.53.57,2.39,2.39,0,0,1,.32.73,3.46,3.46,0,0,1,.1.87A2.73,2.73,0,0,1,39.76,10a2.18,2.18,0,0,1-1,.86,3.87,3.87,0,0,1-1.51.28h-.84v2.28h-2ZM36.94,9.4a1.28,1.28,0,0,0,.79-.22.74.74,0,0,0,.3-.63.76.76,0,0,0-.29-.61,1.13,1.13,0,0,0-.8-.25h-.52V9.4Z"/><path class="cls-2" d="M40.84,5.93h2.7a4.34,4.34,0,0,1,1.6.28A3.35,3.35,0,0,1,46.37,7a3.24,3.24,0,0,1,.78,1.19,4.15,4.15,0,0,1,.28,1.52,4.1,4.1,0,0,1-.27,1.51,3.24,3.24,0,0,1-2,2,4.59,4.59,0,0,1-1.62.27H40.84Zm2.6,5.71a1.92,1.92,0,0,0,1-.26,1.73,1.73,0,0,0,.66-.71,2,2,0,0,0,.24-1,2.21,2.21,0,0,0-.14-.78,2,2,0,0,0-.37-.63,1.72,1.72,0,0,0-.55-.41,1.65,1.65,0,0,0-.69-.15h-.79v3.92Z"/><path class="cls-2" d="M48.3,5.93h5.15V7.72H50.24V9.13h2.62V10.9H50.24v2.52H48.3Z"/><path class="cls-2" d="M74.1,11a.78.78,0,0,1-.44-.13L72,9.78a.8.8,0,1,1,.87-1.34L74,9.12l2.69-2.77a.79.79,0,0,1,1.13,0,.8.8,0,0,1,0,1.13L74.66,10.7A.81.81,0,0,1,74.1,11Z"/></svg>