<svg id="Capa_1" data-name="Capa 1" xmlns="http://www.w3.org/2000/svg" xmlns:xlink="http://www.w3.org/1999/xlink" viewBox="0 0 172 74.14"><defs><style>.cls-1{fill:#5a7bbc;}.cls-2{fill:url(#Degradado_sin_nombre_67);}.cls-3{fill:url(#Degradado_sin_nombre_67-2);}.cls-4{fill:url(#Degradado_sin_nombre_67-3);}.cls-5{fill:url(#Degradado_sin_nombre_67-4);}.cls-6{fill:url(#Degradado_sin_nombre_67-5);}.cls-7{fill:url(#Degradado_sin_nombre_67-6);}.cls-8{fill:#3f64ae;}</style><linearGradient id="Degradado_sin_nombre_67" x1="17.37" y1="5.2" x2="24.3" y2="146.67" gradientUnits="userSpaceOnUse"><stop offset="0" stop-color="#53c6e1"/><stop offset="0.53" stop-color="#5a7bbc"/><stop offset="1" stop-color="#3f64ae"/></linearGradient><linearGradient id="Degradado_sin_nombre_67-2" x1="51.45" y1="3.58" x2="58.37" y2="145.06" xlink:href="#Degradado_sin_nombre_67"/><linearGradient id="Degradado_sin_nombre_67-3" x1="73.67" y1="2.5" x2="80.59" y2="143.97" xlink:href="#Degradado_sin_nombre_67"/><linearGradient id="Degradado_sin_nombre_67-4" x1="75.63" y1="2.29" x2="82.55" y2="143.77" xlink:href="#Degradado_sin_nombre_67"/><linearGradient id="Degradado_sin_nombre_67-5" x1="108.38" y1="1.3" x2="115.3" y2="142.77" xlink:href="#Degradado_sin_nombre_67"/><linearGradient id="Degradado_sin_nombre_67-6" x1="138.47" y1="-0.76" x2="145.39" y2="140.71" xlink:href="#Degradado_sin_nombre_67"/></defs><title>logoclick</title><path class="cls-1" d="M169.76,72.08l-.7-1.47a1.33,1.33,0,0,0,.66-1.16,1.26,1.26,0,0,0-.11-.51,1.32,1.32,0,0,0-.27-.42,1.37,1.37,0,0,0-.42-.29,1.46,1.46,0,0,0-.51-.12h-1.84c-.08,0-.12,0-.12.14v3.84a.12.12,0,0,0,0,.09.16.16,0,0,0,.09,0h.75c.09,0,.13,0,.13-.12V70.78h.66l.61,1.34a.11.11,0,0,0,.11.09h.81c.09,0,.13,0,.13-.1s0,0,0,0Zm-1.17-2.3a.44.44,0,0,1-.33.13h-.81V69h.81a.43.43,0,0,1,.19,0,.48.48,0,0,1,.15.11.38.38,0,0,1,.09.15.51.51,0,0,1-.1.51Z"/><path class="cls-1" d="M171.86,69.11a4.09,4.09,0,0,0-.41-1,4,4,0,0,0-.62-.8,3.53,3.53,0,0,0-.81-.63,3.75,3.75,0,0,0-.94-.4,4.09,4.09,0,0,0-1.05-.14,4.18,4.18,0,0,0-1.07.14,4,4,0,0,0-1,.41,4,4,0,0,0-1.83,2.37,3.69,3.69,0,0,0-.14,1.05,4.11,4.11,0,0,0,.14,1.06,4.52,4.52,0,0,0,.4,1A4,4,0,0,0,167,74a4.09,4.09,0,0,0,1,.14,3.72,3.72,0,0,0,1.06-.15,4.06,4.06,0,0,0,1-.4,4,4,0,0,0,.8-.62,4,4,0,0,0,.63-.8,4.44,4.44,0,0,0,.4-1,4,4,0,0,0,0-2.11Zm-1,1.78a2.9,2.9,0,0,1-.3.7,2.77,2.77,0,0,1-.46.62,3.14,3.14,0,0,1-.6.49,2.66,2.66,0,0,1-.73.32,2.76,2.76,0,0,1-.82.12,2.79,2.79,0,0,1-.76-.11,2.85,2.85,0,0,1-.7-.28,3.43,3.43,0,0,1-.61-.45,3.29,3.29,0,0,1-.47-.59,2.58,2.58,0,0,1-.31-.7,2.67,2.67,0,0,1-.12-.8,2.75,2.75,0,0,1,.17-.95,2.8,2.8,0,0,1,.46-.83,3.1,3.1,0,0,1,.71-.64,3,3,0,0,1,.91-.39,3.77,3.77,0,0,1,.43-.1,3.25,3.25,0,0,1,.44,0,2.88,2.88,0,0,1,.71.09,2.77,2.77,0,0,1,.67.27,2.59,2.59,0,0,1,.58.42,2.9,2.9,0,0,1,.48.57,3.09,3.09,0,0,1,.31.69,3,3,0,0,1,.11.81A3.32,3.32,0,0,1,170.91,70.89Z"/><path class="cls-2" d="M0,48.51C0,64.4,9,74.14,26.55,74.14a41.7,41.7,0,0,0,11.3-1.43V61.28h-.73a30,30,0,0,1-9,1.61c-8.45,0-11.94-5.27-11.94-14.29s3.49-14.38,11.94-14.38a30,30,0,0,1,9,1.61h.73V24.4A41.7,41.7,0,0,0,26.55,23C9,23,0,32.62,0,48.51Z"/><rect class="cls-3" x="45.51" y="0.13" width="15.16" height="74.01"/><rect class="cls-4" x="68.34" y="22.96" width="15.16" height="51.18"/><path class="cls-5" d="M76,0c-5.51,0-8.82,3.31-8.82,8.36s3.31,8.36,8.73,8.36,8.82-3.31,8.82-8.36S81.39,0,76,0Z"/><path class="cls-6" d="M119.33,62.89c-8.45,0-11.94-5.27-11.94-14.29s3.49-14.38,11.94-14.38c.54,0,1.08,0,1.61.07l8.09-9.9A41.85,41.85,0,0,0,117.77,23c-17.55,0-26.55,9.65-26.55,25.54s9,25.63,26.55,25.63A44.86,44.86,0,0,0,127.89,73l-8.17-10.14Z"/><path class="cls-7" d="M140.44,48.41c-7.9-10.79-5-16.77-3.3-19.44L120.25,48.41l22.36,25.67,20.16.06Z"/><rect class="cls-8" x="140.09" y="28.55" width="3.67" height="3.67" transform="translate(25.88 117.56) rotate(-49)"/><rect class="cls-8" x="157.21" y="23.15" width="1" height="1" transform="translate(36.4 127.16) rotate(-49)"/><rect class="cls-8" x="160.07" y="24.48" width="0.99" height="0.99" transform="translate(36.38 129.77) rotate(-49)"/><rect class="cls-8" x="157.34" y="26.24" width="1.42" height="1.42" transform="translate(34.02 128.56) rotate(-49)"/><rect class="cls-8" x="153.74" y="24.27" width="1.68" height="1.68" transform="translate(34.22 125.3) rotate(-49)"/><rect class="cls-8" x="155.24" y="28.93" width="1.37" height="1.37" transform="translate(31.27 127.86) rotate(-49)"/><rect class="cls-8" x="152.51" y="27.17" width="1.74" height="1.74" transform="translate(31.59 125.4) rotate(-49)"/><rect class="cls-8" x="149.91" y="24.7" width="2.09" height="2.09" transform="translate(32.49 122.78) rotate(-49)"/><rect class="cls-8" x="151.86" y="21.43" width="1.76" height="1.76" transform="translate(35.7 122.95) rotate(-49)"/><rect class="cls-8" x="146.9" y="21.6" width="2.16" height="2.16" transform="translate(33.78 119.49) rotate(-49)"/><rect class="cls-8" x="152.31" y="31.04" width="1.65" height="1.65" transform="translate(28.62 126.53) rotate(-49)"/><rect class="cls-8" x="150.63" y="33.54" width="2.17" height="2.17" transform="translate(26.05 126.41) rotate(-49)"/><rect class="cls-8" x="149.29" y="28.68" width="2.31" height="2.31" transform="translate(29.23 123.81) rotate(-49)"/><rect class="cls-8" x="147.88" y="26.73" width="1.49" height="1.49" transform="translate(30.39 121.62) rotate(-49)"/><rect class="cls-8" x="142.25" y="21.71" width="1.79" height="1.79" transform="translate(32.17 115.81) rotate(-49)"/><rect class="cls-8" x="140.2" y="25.15" width="1.85" height="1.85" transform="translate(28.86 115.47) rotate(-49)"/><rect class="cls-8" x="145.19" y="28.75" width="2.5" height="2.5" transform="translate(27.73 120.84) rotate(-49)"/><rect class="cls-8" x="143.74" y="24.26" width="2.88" height="2.88" transform="translate(30.53 118.4) rotate(-49)"/><path class="cls-8" d="M146.92,32.33l-2.4,2.76L142.08,33l-2.41,2.77-2.77-2.41,2.42-2.78-2-1.76-1,1.09c-1.71,2.67-3.88,7.78,4,18.57l8.37-9.66-1.46-1.27,2.41-2.77Zm-2.27,8.3-1.57-1.36,1.36-1.57L146,39.06Z"/></svg>